<svg width="743" height="528" viewBox="0 0 743 528" xmlns="http://www.w3.org/2000/svg" xmlns:xlink="http://www.w3.org/1999/xlink"><defs><linearGradient x1="0%" y1="58.154%" x2="71.257%" y2="34.748%" id="a"><stop stop-color="#80E6D3" offset="0%"/><stop stop-color="#A9E5CF" offset="100%"/></linearGradient><linearGradient x1="0%" y1="51.107%" x2="71.257%" y2="47.93%" id="b"><stop stop-color="#80E6D3" offset="0%"/><stop stop-color="#A9E5CF" offset="100%"/></linearGradient><linearGradient x1="0%" y1="58.154%" x2="71.257%" y2="34.748%" id="c"><stop stop-color="#80E6D3" offset="0%"/><stop stop-color="#A9E5CF" offset="100%"/></linearGradient><linearGradient x1="30.742%" y1="74.457%" x2="58.187%" y2="4.254%" id="d"><stop stop-color="#80E6D3" offset="0%"/><stop stop-color="#A9E5CF" offset="100%"/></linearGradient><linearGradient x1="0%" y1="51.107%" x2="71.257%" y2="47.93%" id="e"><stop stop-color="#80E6D3" offset="0%"/><stop stop-color="#A9E5CF" offset="100%"/></linearGradient><linearGradient x1="29.642%" y1="74.457%" x2="58.655%" y2="4.254%" id="f"><stop stop-color="#80E6D3" offset="0%"/><stop stop-color="#A9E5CF" offset="100%"/></linearGradient><linearGradient x1="17.104%" y1="33.33%" x2="115.19%" y2="68.796%" id="h"><stop stop-color="#86E8CF" offset="0%"/><stop stop-color="#3BC4A1" offset="100%"/><stop stop-color="#3BC4A1" offset="100%"/><stop stop-color="#3BC4A1" offset="100%"/><stop stop-color="#3BC4A1" offset="100%"/></linearGradient><linearGradient x1="17.104%" y1="33.33%" x2="115.19%" y2="68.796%" id="i"><stop stop-color="#86E8CF" offset="0%"/><stop stop-color="#3BC4A1" offset="100%"/><stop stop-color="#3BC4A1" offset="100%"/><stop stop-color="#3BC4A1" offset="100%"/><stop stop-color="#3BC4A1" offset="100%"/></linearGradient><linearGradient x1="17.104%" y1="33.33%" x2="115.19%" y2="68.796%" id="j"><stop stop-color="#86E8CF" offset="0%"/><stop stop-color="#3BC4A1" offset="100%"/><stop stop-color="#3BC4A1" offset="100%"/><stop stop-color="#3BC4A1" offset="100%"/><stop stop-color="#3BC4A1" offset="100%"/></linearGradient><linearGradient x1="0%" y1="50%" x2="100%" y2="50%" id="k"><stop stop-color="#3BC4A1" offset="0%"/><stop stop-color="#B1E7D1" offset="51.359%"/><stop stop-color="#00B8B8" offset="100%"/></linearGradient><linearGradient x1="0%" y1="50%" x2="100%" y2="50%" id="l"><stop stop-color="#D7F4ED" offset="0%"/><stop stop-color="#E5FFFF" offset="100%"/></linearGradient><linearGradient x1="59.378%" y1="72.926%" x2="24.891%" y2="-14.691%" id="o"><stop stop-color="#3BC4A1" offset="0%"/><stop stop-color="#B1E7D1" offset="51.359%"/><stop stop-color="#00B8B8" offset="100%"/></linearGradient><linearGradient x1="36.118%" y1="84.013%" x2="60.391%" y2="37.631%" id="q"><stop stop-color="#112B24" offset="0%"/><stop stop-color="#276353" offset="58.559%"/><stop stop-color="#112B24" offset="100%"/></linearGradient><linearGradient x1="61.394%" y1="72.926%" x2="19.493%" y2="-14.691%" id="s"><stop stop-color="#3BC4A1" offset="0%"/><stop stop-color="#B1E7D1" offset="51.359%"/><stop stop-color="#00B8B8" offset="100%"/></linearGradient><linearGradient x1="32.084%" y1="84.013%" x2="63.41%" y2="37.631%" id="u"><stop stop-color="#112B24" offset="0%"/><stop stop-color="#276353" offset="58.559%"/><stop stop-color="#112B24" offset="100%"/></linearGradient><linearGradient x1="0%" y1="50%" x2="100%" y2="50%" id="x"><stop stop-color="#3BC4A1" offset="0%"/><stop stop-color="#B1E7D1" offset="51.359%"/><stop stop-color="#00B8B8" offset="100%"/></linearGradient><linearGradient x1="83.165%" y1="72.926%" x2="-38.796%" y2="-14.691%" id="z"><stop stop-color="#3BC4A1" offset="0%"/><stop stop-color="#B1E7D1" offset="51.359%"/><stop stop-color="#00B8B8" offset="100%"/></linearGradient><linearGradient x1="-6.426%" y1="84.013%" x2="92.235%" y2="37.631%" id="A"><stop stop-color="#112B24" offset="0%"/><stop stop-color="#276353" offset="58.559%"/><stop stop-color="#112B24" offset="100%"/></linearGradient><linearGradient x1="0%" y1="50%" x2="100%" y2="50%" id="B"><stop stop-color="#C4EEE3" offset="0%"/><stop stop-color="#CFF" offset="100%"/></linearGradient><linearGradient x1="0%" y1="50%" x2="100%" y2="50%" id="E"><stop stop-color="#3BC4A1" offset="0%"/><stop stop-color="#B1E7D1" offset="51.359%"/><stop stop-color="#00B8B8" offset="100%"/></linearGradient><linearGradient x1="0%" y1="50%" x2="100%" y2="50%" id="F"><stop stop-color="#D7F4ED" offset="0%"/><stop stop-color="#E5FFFF" offset="100%"/></linearGradient><linearGradient x1="48.964%" y1="16.132%" x2="50%" y2="100%" id="G"><stop stop-color="#72D5BB" stop-opacity="0" offset="0%"/><stop stop-color="#72D5BB" stop-opacity=".484" offset="100%"/></linearGradient><linearGradient x1="0%" y1="50%" x2="100%" y2="50%" id="J"><stop stop-color="#3BC4A1" offset="0%"/><stop stop-color="#B1E7D1" offset="51.359%"/><stop stop-color="#00B8B8" offset="100%"/></linearGradient><linearGradient x1="0%" y1="50%" x2="100%" y2="50%" id="K"><stop stop-color="#D7F4ED" offset="0%"/><stop stop-color="#E5FFFF" offset="100%"/></linearGradient><linearGradient x1="48.964%" y1="16.132%" x2="50%" y2="100%" id="L"><stop stop-color="#72D5BB" stop-opacity="0" offset="0%"/><stop stop-color="#72D5BB" stop-opacity=".484" offset="100%"/></linearGradient><linearGradient x1="18.77%" y1="-12.779%" x2="69.409%" y2="117.833%" id="M"><stop stop-color="#00B7B7" offset="32.66%"/><stop stop-color="#42BCA0" offset="0%"/><stop stop-color="#0BB8B3" offset="66.434%"/><stop stop-color="#49BD9E" offset="97.817%"/></linearGradient><linearGradient x1="16.452%" y1="-32.661%" x2="86.551%" y2="148.874%" id="P"><stop stop-color="#FD8" offset="0%"/><stop stop-color="#FFC021" offset="100%"/></linearGradient><linearGradient x1="26.401%" y1="-32.661%" x2="75.711%" y2="148.874%" id="Q"><stop stop-color="#FD8" offset="0%"/><stop stop-color="#FFC021" offset="100%"/></linearGradient><linearGradient x1="17.174%" y1="-11.967%" x2="110.609%" y2="177.883%" id="R"><stop stop-color="#22D1D1" offset="0%"/><stop stop-color="#0FA5A5" offset="100%"/></linearGradient><linearGradient x1="25.086%" y1="-11.967%" x2="96%" y2="177.883%" id="S"><stop stop-color="#22D1D1" offset="0%"/><stop stop-color="#0FA5A5" offset="100%"/></linearGradient><linearGradient x1="-11.632%" y1="6.762%" x2="163.794%" y2="139.231%" id="T"><stop stop-color="#22D1D1" offset="0%"/><stop stop-color="#0FA5A5" offset="100%"/></linearGradient><linearGradient x1="-11.632%" y1="-4.094%" x2="163.794%" y2="161.635%" id="U"><stop stop-color="#22D1D1" offset="0%"/><stop stop-color="#0FA5A5" offset="100%"/></linearGradient><linearGradient x1="39.932%" y1="-11.967%" x2="68.589%" y2="177.883%" id="W"><stop stop-color="#22D1D1" offset="0%"/><stop stop-color="#0FA5A5" offset="100%"/></linearGradient><linearGradient x1="-11.632%" y1="17.726%" x2="163.794%" y2="116.606%" id="X"><stop stop-color="#22D1D1" offset="0%"/><stop stop-color="#0FA5A5" offset="100%"/></linearGradient><linearGradient x1=".818%" y1="-11.967%" x2="140.808%" y2="177.883%" id="aa"><stop stop-color="#22D1D1" offset="0%"/><stop stop-color="#0FA5A5" offset="100%"/></linearGradient><linearGradient x1="-.072%" y1="-11.967%" x2="142.451%" y2="177.883%" id="ab"><stop stop-color="#22D1D1" offset="0%"/><stop stop-color="#0FA5A5" offset="100%"/></linearGradient><linearGradient x1="-7.255%" y1="-11.967%" x2="155.713%" y2="177.883%" id="ad"><stop stop-color="#22D1D1" offset="0%"/><stop stop-color="#0FA5A5" offset="100%"/></linearGradient><linearGradient x1="-11.632%" y1="20.872%" x2="163.794%" y2="110.112%" id="ae"><stop stop-color="#22D1D1" offset="0%"/><stop stop-color="#0FA5A5" offset="100%"/></linearGradient><linearGradient x1="-5.938%" y1="12.939%" x2="110.945%" y2="94.33%" id="af"><stop stop-color="#FD8" offset="0%"/><stop stop-color="#FFC021" offset="100%"/></linearGradient><linearGradient x1="-5.938%" y1="-1.924%" x2="110.945%" y2="112.108%" id="ag"><stop stop-color="#FD8" offset="0%"/><stop stop-color="#FFC021" offset="100%"/></linearGradient><linearGradient x1="9.429%" y1="-32.661%" x2="94.203%" y2="148.874%" id="ah"><stop stop-color="#FD8" offset="0%"/><stop stop-color="#FFC021" offset="100%"/></linearGradient><linearGradient x1="19.916%" y1="-32.661%" x2="82.777%" y2="148.874%" id="ai"><stop stop-color="#FD8" offset="0%"/><stop stop-color="#FFC021" offset="100%"/></linearGradient><linearGradient x1="38.985%" y1="-32.661%" x2="62.001%" y2="148.874%" id="aj"><stop stop-color="#FD8" offset="0%"/><stop stop-color="#FFC021" offset="100%"/></linearGradient><linearGradient x1="26.401%" y1="-32.661%" x2="75.711%" y2="148.874%" id="ak"><stop stop-color="#FD8" offset="0%"/><stop stop-color="#FFC021" offset="100%"/></linearGradient><linearGradient x1="37.855%" y1="-52.878%" x2="69.908%" y2="166.36%" id="al"><stop stop-color="#86E8CF" offset="0%"/><stop stop-color="#3BC4A1" offset="100%"/></linearGradient><linearGradient x1="28.113%" y1="-50.626%" x2="71.665%" y2="135.821%" id="am"><stop stop-color="#86E8CF" offset="0%"/><stop stop-color="#3BC4A1" offset="100%"/></linearGradient><linearGradient x1="17.927%" y1="-38.052%" x2="93.284%" y2="151.533%" id="an"><stop stop-color="#86E8CF" offset="0%"/><stop stop-color="#3BC4A1" offset="100%"/></linearGradient><linearGradient x1="21.495%" y1="-38.052%" x2="88.469%" y2="151.533%" id="ao"><stop stop-color="#86E8CF" offset="0%"/><stop stop-color="#3BC4A1" offset="100%"/></linearGradient><linearGradient x1="14.384%" y1="-38.052%" x2="98.066%" y2="151.533%" id="ap"><stop stop-color="#86E8CF" offset="0%"/><stop stop-color="#3BC4A1" offset="100%"/></linearGradient><linearGradient x1="17.526%" y1="-6.688%" x2="103.233%" y2="114.117%" id="aq"><stop stop-color="#86E8CF" offset="0%"/><stop stop-color="#3BC4A1" offset="100%"/></linearGradient><linearGradient x1="71.971%" y1="41.635%" x2="18.923%" y2="59.493%" id="ar"><stop stop-color="#526060" offset="0%"/><stop stop-color="#374040" offset="100%"/></linearGradient><linearGradient x1="47.128%" y1="51.011%" x2="51.933%" y2="18.069%" id="as"><stop stop-color="#366056" offset="0%"/><stop stop-color="#2E4B43" offset="100%"/></linearGradient><linearGradient x1="53.184%" y1="72.926%" x2="48.448%" y2="-11.078%" id="at"><stop stop-color="#32584F" offset=".645%"/><stop stop-color="#4C9683" offset="100%"/></linearGradient><linearGradient x1="50%" y1="58.707%" x2="128.102%" y2="58.707%" id="au"><stop stop-color="#86E8CF" offset="0%"/><stop stop-color="#36B695" offset="100%"/></linearGradient><linearGradient x1="62.733%" y1="36.711%" x2="46.685%" y2="77.461%" id="av"><stop stop-color="#FFF1D8" offset="0%"/><stop stop-color="#FFD599" offset="100%"/></linearGradient><linearGradient x1="34.076%" y1="68.825%" x2="61.258%" y2="33.412%" id="aw"><stop stop-color="#526060" offset="0%"/><stop stop-color="#374040" offset="100%"/></linearGradient><linearGradient x1="78.895%" y1="36.711%" x2="42.477%" y2="77.461%" id="ax"><stop stop-color="#FFF1D8" offset="0%"/><stop stop-color="#FFD599" offset="100%"/></linearGradient><linearGradient x1="21.77%" y1="44.895%" x2="42.085%" y2="71.52%" id="ay"><stop stop-color="#86E8CF" offset="0%"/><stop stop-color="#36B695" offset="100%"/></linearGradient><linearGradient x1="46.179%" y1="58.707%" x2="54.881%" y2="55.472%" id="az"><stop stop-color="#36B695" offset="0%"/><stop stop-color="#86E8CF" offset="100%"/></linearGradient><linearGradient x1="78.895%" y1="36.711%" x2="42.477%" y2="77.461%" id="aA"><stop stop-color="#FFF1D8" offset="0%"/><stop stop-color="#FFD599" offset="100%"/></linearGradient><linearGradient x1="-12.516%" y1="70.873%" x2="164.787%" y2="35.57%" id="aB"><stop stop-color="#FD8" offset="0%"/><stop stop-color="#FFC021" offset="100%"/><stop stop-color="#FFC021" offset="100%"/></linearGradient><linearGradient x1="50%" y1="0%" x2="50%" y2="100%" id="aC"><stop stop-color="#AFBABA" offset="0%"/><stop stop-color="#778484" offset="100%"/></linearGradient><linearGradient x1="47.128%" y1="51.011%" x2="51.933%" y2="18.069%" id="aD"><stop stop-color="#366056" offset="0%"/><stop stop-color="#2E4B43" offset="100%"/></linearGradient><linearGradient x1="53.184%" y1="72.926%" x2="48.448%" y2="-11.078%" id="aE"><stop stop-color="#32584F" offset=".645%"/><stop stop-color="#4C9683" offset="100%"/></linearGradient><linearGradient x1="62.29%" y1="50%" x2="125.86%" y2="50%" id="aF"><stop stop-color="#FD8" offset="0%"/><stop stop-color="#FFC021" offset="100%"/></linearGradient><linearGradient x1="62.733%" y1="36.711%" x2="46.685%" y2="77.461%" id="aG"><stop stop-color="#FFF1D8" offset="0%"/><stop stop-color="#FFD599" offset="100%"/></linearGradient><linearGradient x1="34.557%" y1="68.825%" x2="60.918%" y2="33.412%" id="aH"><stop stop-color="#526060" offset="0%"/><stop stop-color="#374040" offset="100%"/></linearGradient><linearGradient x1="54.884%" y1="50%" x2="40.488%" y2="58.251%" id="aJ"><stop stop-color="#FD8" offset="0%"/><stop stop-color="#FFC021" offset="100%"/></linearGradient><linearGradient x1="71.971%" y1="41.635%" x2="18.923%" y2="59.493%" id="aK"><stop stop-color="#526060" offset="0%"/><stop stop-color="#374040" offset="100%"/></linearGradient><linearGradient x1="50%" y1="100%" x2="50%" y2="0%" id="aL"><stop stop-color="#D7F4ED" offset="0%"/><stop stop-color="#BBD9D9" offset="100%"/></linearGradient><linearGradient x1="50%" y1="100%" x2="50%" y2="0%" id="aM"><stop stop-color="#D7F4ED" offset="0%"/><stop stop-color="#E5FFFF" offset="100%"/></linearGradient><linearGradient x1="48.269%" y1="47.228%" x2="69.179%" y2="62.41%" id="aN"><stop stop-color="#22D1D1" offset="0%"/><stop stop-color="#0FA5A5" offset="100%"/></linearGradient><linearGradient x1="62.733%" y1="36.711%" x2="46.685%" y2="77.461%" id="aO"><stop stop-color="#FFF1D8" offset="0%"/><stop stop-color="#FFD599" offset="100%"/></linearGradient><linearGradient x1="30.463%" y1="68.825%" x2="63.812%" y2="33.412%" id="aP"><stop stop-color="#526060" offset="0%"/><stop stop-color="#374040" offset="100%"/></linearGradient><linearGradient x1="57.893%" y1="50%" x2="42.537%" y2="45.972%" id="aQ"><stop stop-color="#22D1D1" offset="0%"/><stop stop-color="#0FA5A5" offset="100%"/></linearGradient><linearGradient x1="78.895%" y1="36.711%" x2="42.477%" y2="77.461%" id="aR"><stop stop-color="#FFF1D8" offset="0%"/><stop stop-color="#FFD599" offset="100%"/></linearGradient><linearGradient x1="45.377%" y1="29.133%" x2="67.354%" y2="62.929%" id="aS"><stop stop-color="#22D1D1" offset="0%"/><stop stop-color="#0FA5A5" offset="100%"/></linearGradient><filter x="-31.4%" y="-54.3%" width="162.8%" height="208.7%" filterUnits="objectBoundingBox" id="g"><feGaussianBlur stdDeviation="11" in="SourceGraphic"/></filter><filter x="-31.4%" y="-54.3%" width="162.8%" height="208.7%" filterUnits="objectBoundingBox" id="m"><feGaussianBlur stdDeviation="11" in="SourceGraphic"/></filter><filter x="-31.4%" y="-54.3%" width="162.8%" height="208.7%" filterUnits="objectBoundingBox" id="n"><feGaussianBlur stdDeviation="11" in="SourceGraphic"/></filter><filter x="-31.4%" y="-54.3%" width="162.8%" height="208.7%" filterUnits="objectBoundingBox" id="C"><feGaussianBlur stdDeviation="11" in="SourceGraphic"/></filter><filter x="-31.4%" y="-54.3%" width="162.8%" height="208.7%" filterUnits="objectBoundingBox" id="D"><feGaussianBlur stdDeviation="11" in="SourceGraphic"/></filter><filter x="-31.4%" y="-54.3%" width="162.8%" height="208.7%" filterUnits="objectBoundingBox" id="H"><feGaussianBlur stdDeviation="11" in="SourceGraphic"/></filter><filter x="-18.8%" y="-32.6%" width="137.7%" height="165.2%" filterUnits="objectBoundingBox" id="I"><feGaussianBlur stdDeviation="11" in="SourceGraphic"/></filter><filter x="-57.1%" y="-480%" width="214.3%" height="1060%" filterUnits="objectBoundingBox" id="O"><feGaussianBlur stdDeviation="8" in="SourceGraphic"/></filter><polygon id="p" points="0 0 19.7368063 0 19.7368063 54.3720184 0 54.3720184"/><polygon id="t" points="0 0 27.4998075 0 27.4998075 66.6869221 0 66.6869221"/><polygon id="w" points="0 0 65.8772229 0 65.8772229 38.0353876 0 38.0353876"/><path d="M5.5932687,0.000795454359 L5.84128019,0.00212460426 C6.83922039,0.0294741992 7.90630982,0.32030478 8.98559569,0.841677843 L8.98609561,0.841577858 L10.4656644,1.69584435 C10.7206245,1.86781747 10.9755847,2.05078888 11.2285452,2.24575841 C11.3655237,2.35274169 11.4825055,2.44572715 11.5994872,2.54171215 C11.6254831,2.56270887 11.6504792,2.58470543 11.6764751,2.606702 C11.77346,2.6866895 11.869445,2.76867668 11.96543,2.85166371 C12.0044239,2.8856584 12.0414181,2.92065293 12.080412,2.95364777 C12.163399,3.02863606 12.2473859,3.10262449 12.330373,3.17961246 C12.3743661,3.22060605 12.419359,3.26359933 12.464352,3.30559277 C12.5393403,3.37658168 12.6143286,3.44757058 12.688317,3.52055918 C12.739309,3.57055136 12.7903011,3.62254324 12.8412931,3.67253542 C12.9082826,3.7405248 12.976272,3.80851417 13.0432615,3.87750339 C13.0972531,3.93349464 13.1512447,3.99148558 13.2052362,4.04847667 C13.2682264,4.1154662 13.3312165,4.18145589 13.3932068,4.24944526 C13.4491981,4.31143557 13.5061892,4.37442573 13.5621804,4.43741588 C13.6211712,4.50340557 13.6791622,4.56939526 13.7381529,4.63638479 C13.795144,4.70337432 13.853135,4.77136369 13.9101261,4.83935307 C13.9661173,4.90434291 14.0211087,4.9703326 14.0771,5.03732213 C14.1350909,5.10931088 14.1940817,5.18229947 14.2520726,5.25528806 C14.3040645,5.32027791 14.3560564,5.38526775 14.4080482,5.45125744 C14.4680389,5.5282454 14.5270296,5.60623322 14.5860204,5.68422103 C14.6360126,5.74921087 14.685005,5.81420071 14.7339973,5.88119024 C14.7929881,5.96117774 14.8529787,6.04316493 14.9119695,6.12515212 C14.9589621,6.19014196 15.004955,6.25613165 15.0509478,6.32212133 C15.1109384,6.40710805 15.1699292,6.49309461 15.22892,6.58008102 C15.2739129,6.64607071 15.317906,6.71206039 15.3618992,6.77805008 C15.42089,6.86703617 15.4788809,6.95602227 15.5368718,7.0460082 C15.5798651,7.11299773 15.6218585,7.17998726 15.663852,7.24797664 C15.7218429,7.33996226 15.778834,7.43194789 15.8358251,7.52493335 C15.9158126,7.65691273 15.9948003,7.78789226 16.0727881,7.92187132 L15.449,8.283 L15.4535643,8.28347107 L16.073088,7.92347107 L16.2450611,8.2214245 L16.239662,8.22432405 L18.8890479,12.8026085 L27.8063543,28.2536938 C31.3058074,34.3077476 31.2878102,40.850725 27.7653607,42.8514124 L24.2419114,44.8990923 C25.7077372,44.0665299 23.9234494,40.4884022 18.8890479,34.1647091 C21.7334847,33.7277131 23.2340342,33.01435 23.3906967,32.0246199 L22.7585852,32.5637619 L21.655,29.921 L21.1750217,30.1703942 L13.7381529,17.245756 L14.2395643,16.8124711 L9.77956432,8.7160472 L10.0785346,8.69401112 C9.19615574,8.05049226 8.18502736,7.29726878 7.14872951,6.54187638 L6.57820797,6.12782366 C3.81460459,4.1318774 1.00722173,2.2590191 0.0882504619,2.51522941 L0,2.54941095 L0,2.54941095 L3.52344934,0.501730971 C4.15580506,0.175736465 4.85375383,0.0133899361 5.5932687,0.000795454359 Z" id="N"/><path d="M1.60241761,0.206367209 L11.3020281,5.80613981 C12.2030905,6.32636847 12.933546,7.59155442 12.933546,8.63201173 L12.2332845,30.9019307 C12.2019331,31.8974727 11.4812061,32.2843929 10.6028061,31.7772484 L9.57480434,31.1837313 C8.73660965,30.6997994 8.03478682,29.5612042 7.95138334,28.5499907 L6.6291251,12.5184616 C6.6201592,12.4097557 6.54020786,12.2880614 6.45054879,12.2466496 C6.37328188,12.2109616 6.3121676,12.2462459 6.3044409,12.3310051 L4.98218267,26.8357219 C4.89877918,27.7506294 4.19695636,28.0788293 3.35876167,27.5948974 L2.3307599,27.0013803 C1.45235986,26.4942358 0.731632943,25.2750919 0.700281501,24.2433483 L0.00105953849,1.232677 C-0.0294081126,0.230018123 0.600760478,-0.241544822 1.43283639,0.12207206 L1.60241761,0.206367209 Z" id="V"/><path d="M2.24206967,0.980143176 C2.88523492,1.88768958 3.39495709,2.45008519 3.77123617,2.66733002 C4.3986766,3.02958292 5.39715724,2.86058002 6.76667806,2.16032131 C7.23453632,1.9210916 7.94108124,2.24824024 8.4863565,2.95657359 L21.9627351,20.4629029 C22.3762248,21.0000418 22.627417,21.6683929 22.627417,22.2314326 L22.627417,24.3201708 C22.627417,25.222048 21.994252,25.587606 21.2132034,25.1366674 L1.41421356,13.7057153 C0.633164979,13.2547767 0,12.1581027 0,11.2562255 L0,1.00965137 C0,0.107768297 0.633162317,-0.25779092 1.41421356,0.193149227 C1.71143259,0.36474871 2.0010968,0.640115383 2.24206967,0.980143176 Z" id="Z"/><radialGradient cx="18.923%" cy="68.825%" fx="18.923%" fy="68.825%" r="63.782%" id="aI"><stop stop-color="#475252" offset="0%"/><stop stop-color="#2A3131" offset="99.801%"/></radialGradient></defs><g transform="translate(33)" fill="none" fill-rule="evenodd"><line x1="151.863" y1="397.084" x2="313.188" y2="303.934" stroke="url(#a)" stroke-width="5"/><path d="M52.5853427,339.761678 C52.5853427,339.761678 66.5453673,331.701663 83.6103973,321.846646 C100.670427,311.996629 142.555501,307.16162 176.680561,311.101627 C210.810621,315.041634 249.90069,311.816628 263.550714,303.936614 C277.200738,296.051601 288.370758,289.606589 288.370758,289.606589" stroke="url(#b)" stroke-width="5"/><line x1="362.928" y1="274.883" x2="524.298" y2="181.707" stroke="url(#c)" stroke-width="5"/><path d="M338.10205,260.548952 C338.10205,260.548952 349.275166,254.097153 362.928975,246.214954 C376.582783,238.327755 382.169341,215.751458 375.342437,196.04096 C368.515533,176.330463 376.35772,152.143717 392.772298,142.285967 C409.186876,132.433219 422.615622,124.370971 422.615622,124.370971" stroke="url(#d)" stroke-width="5"/><path d="M387.754399,289.218448 C387.754399,289.218448 401.718293,281.1562 418.788054,271.29845 C435.852814,261.445702 477.749499,256.609353 511.88402,260.550453 C546.023542,264.491552 585.124447,261.265652 598.778255,253.383454 C612.432064,245.496254 623.60518,239.049456 623.60518,239.049456" stroke="url(#e)" stroke-width="5"/><path d="M251.140193,454.40738 C251.140193,454.40738 265.100217,446.347365 282.165247,436.492348 C299.225277,426.642331 307.605292,402.457288 300.78028,382.752253 C293.955268,363.047219 299.540278,340.477179 313.190302,332.597165 C326.840326,324.712151 338.010346,318.26714 338.010346,318.26714" stroke="url(#f)" stroke-width="5"/><path d="M7.60796101,360.006974 C-2.535987,354.15142 -2.535987,344.569605 7.60796101,338.714052 L34.1474589,323.391665 C44.2871483,317.536112 60.8828517,317.536112 71.0267997,323.391665 L97.562039,338.714052 C107.705987,344.569605 107.705987,354.15142 97.562039,360.006974 L71.0267997,375.32936 C60.8828517,381.184914 44.2871483,381.184914 34.1474589,375.32936 L7.60796101,360.006974 Z" fill="#000" opacity=".25" filter="url(#g)"/><path d="M225.206108,365.735953 C163.168317,329.913105 163.168317,271.293073 225.206108,235.470225 C287.2439,199.647377 388.767724,199.647377 450.805516,235.470225 C512.852397,271.293073 512.852397,329.913105 450.805516,365.735953 C388.767724,401.558801 287.2439,401.558801 225.206108,365.735953" fill="url(#h)" fill-rule="nonzero" opacity=".15"/><path d="M243.59792,355.116464 C191.674986,325.134298 191.674986,276.07188 243.59792,246.089714 C295.520855,216.107548 380.491881,216.107548 432.414815,246.089714 C484.345357,276.07188 484.345357,325.134298 432.414815,355.116464 C380.491881,385.098631 295.520855,385.098631 243.59792,355.116464" fill="url(#i)" fill-rule="nonzero" opacity=".15"/><path d="M261.989732,344.496976 C220.181655,320.355491 220.181655,280.850687 261.989732,256.709203 C303.797809,232.567718 372.216038,232.567718 414.024115,256.709203 C455.838318,280.850687 455.838318,320.355491 414.024115,344.496976 C372.216038,368.63846 303.797809,368.63846 261.989732,344.496976" fill="url(#j)" fill-rule="nonzero" opacity=".2"/><g transform="translate(0 299)" fill-rule="nonzero"><path d="M7.60826908,41.0086342 C2.53608969,38.0807389 0,34.2212405 0,30.3617422 C0,27.7887432 0,24.7887432 0,21.3617422 L34.1488417,4.39184298 C44.2889417,-1.46394766 60.8853171,-1.46394766 71.0296758,4.39184298 L105.17,21.3617422 C105.172839,24.7887432 105.174259,27.7887432 105.174259,30.3617422 C105.174259,34.2212405 102.638169,38.0807389 97.5659897,41.0086342 L71.0296758,56.3316413 C60.8853171,62.187432 44.2889417,62.187432 34.1488417,56.3316413 L7.60826908,41.0086342 Z" transform="translate(0 9)" fill="url(#k)"/><path d="M7.60826908,41.0086342 C-2.53608969,35.1528436 -2.53608969,25.5706407 7.60826908,19.7148501 L34.1488417,4.39184298 C44.2889417,-1.46394766 60.8853171,-1.46394766 71.0296758,4.39184298 L97.5659897,19.7148501 C107.710348,25.5706407 107.710348,35.1528436 97.5659897,41.0086342 L71.0296758,56.3316413 C60.8853171,62.187432 44.2889417,62.187432 34.1488417,56.3316413 L7.60826908,41.0086342 Z" fill="url(#l)"/></g><path d="M106.607961,418.006974 C96.464013,412.15142 96.464013,402.569605 106.607961,396.714052 L133.147459,381.391665 C143.287148,375.536112 159.882852,375.536112 170.0268,381.391665 L196.562039,396.714052 C206.705987,402.569605 206.705987,412.15142 196.562039,418.006974 L170.0268,433.32936 C159.882852,439.184914 143.287148,439.184914 133.147459,433.32936 L106.607961,418.006974 Z" fill="#000" opacity=".25" filter="url(#m)"/><path d="M206.607961,475.006974 C196.464013,469.15142 196.464013,459.569605 206.607961,453.714052 L233.147459,438.391665 C243.287148,432.536112 259.882852,432.536112 270.0268,438.391665 L296.562039,453.714052 C306.705987,459.569605 306.705987,469.15142 296.562039,475.006974 L270.0268,490.32936 C259.882852,496.184914 243.287148,496.184914 233.147459,490.32936 L206.607961,475.006974 Z" fill="#000" opacity=".25" filter="url(#n)"/><g transform="translate(99 357)" fill-rule="nonzero"><path d="M7.60826908,41.0086342 C2.53608969,38.0807389 0,34.2212405 0,30.3617422 C0,27.7887432 0,24.7887432 0,21.3617422 L34.1488417,4.39184298 C44.2889417,-1.46394766 60.8853171,-1.46394766 71.0296758,4.39184298 L105.17,21.3617422 C105.172839,24.7887432 105.174259,27.7887432 105.174259,30.3617422 C105.174259,34.2212405 102.638169,38.0807389 97.5659897,41.0086342 L71.0296758,56.3316413 C60.8853171,62.187432 44.2889417,62.187432 34.1488417,56.3316413 L7.60826908,41.0086342 Z" transform="translate(0 9)" fill="url(#k)"/><path d="M7.60826908,41.0086342 C-2.53608969,35.1528436 -2.53608969,25.5706407 7.60826908,19.7148501 L34.1488417,4.39184298 C44.2889417,-1.46394766 60.8853171,-1.46394766 71.0296758,4.39184298 L97.5659897,19.7148501 C107.710348,25.5706407 107.710348,35.1528436 97.5659897,41.0086342 L71.0296758,56.3316413 C60.8853171,62.187432 44.2889417,62.187432 34.1488417,56.3316413 L7.60826908,41.0086342 Z" fill="url(#l)"/></g><g transform="translate(199 414)" fill-rule="nonzero"><path d="M7.60826908,41.0086342 C2.53608969,38.0807389 0,34.2212405 0,30.3617422 C0,27.7887432 0,24.7887432 0,21.3617422 L34.1488417,4.39184298 C44.2889417,-1.46394766 60.8853171,-1.46394766 71.0296758,4.39184298 L105.17,21.3617422 C105.172839,24.7887432 105.174259,27.7887432 105.174259,30.3617422 C105.174259,34.2212405 102.638169,38.0807389 97.5659897,41.0086342 L71.0296758,56.3316413 C60.8853171,62.187432 44.2889417,62.187432 34.1488417,56.3316413 L7.60826908,41.0086342 Z" transform="translate(0 9)" fill="url(#k)"/><path d="M7.60826908,41.0086342 C-2.53608969,35.1528436 -2.53608969,25.5706407 7.60826908,19.7148501 L34.1488417,4.39184298 C44.2889417,-1.46394766 60.8853171,-1.46394766 71.0296758,4.39184298 L97.5659897,19.7148501 C107.710348,25.5706407 107.710348,35.1528436 97.5659897,41.0086342 L71.0296758,56.3316413 C60.8853171,62.187432 44.2889417,62.187432 34.1488417,56.3316413 L7.60826908,41.0086342 Z" fill="url(#l)"/></g><g transform="translate(239 395)"><path d="M4.90328138,0.400001197 C4.0968745,-0.0655591069 3.36335088,-0.110639079 2.82928634,0.191656435 C2.46857549,0.395828898 1.52548004,0.941259136 0,1.82794715 L1.95187707,40.8721837 C1.95187707,42.7466322 3.2798954,45.0470916 4.90328138,45.9843159 L17.9756012,55.8179221 C19.5127974,54.9280124 20.4595441,54.381366 20.8158414,54.177983 C21.3542325,53.8706564 21.6886834,53.2089331 21.6886834,52.2682624 L21.6886834,13.5001239 C21.6886834,11.6256755 20.3606651,9.32521598 18.7372791,8.38799174 L4.90328138,0.400001197 Z" transform="translate(.868)" fill="url(#o)" fill-rule="nonzero"/><g transform="translate(0 1.628)"><mask id="r" fill="#fff"><use xlink:href="#p"/></mask><path d="M2.95140431,0.400001197 C1.32801834,-0.537223037 0,0.22959679 0,2.10404526 L0,40.8721837 C0,42.7466322 1.32801834,45.0470916 2.95140431,45.9843159 L16.785402,53.9717384 C18.408788,54.9095307 19.7368063,54.1427108 19.7368063,52.2682624 L19.7368063,13.5001239 C19.7368063,11.6256755 18.408788,9.32521598 16.785402,8.38799174 L2.95140431,0.400001197 Z" fill="url(#q)" fill-rule="nonzero" mask="url(#r)"/></g></g><g transform="translate(136 329)"><path d="M3.9320255,0.34402981 C3.28522729,-0.0293841363 2.71816921,-0.099013864 2.28561392,0.136101304 C1.98571641,0.299110409 1.22384511,0.740659249 0,1.46074782 L1.55524277,49.0880768 C1.55524277,50.6115863 2.63462614,52.4813479 3.95407767,53.2435643 L26.0564527,67.8382538 C27.2846553,67.1235558 28.0431615,66.6863535 28.3319714,66.5266469 C28.777555,66.2802473 29.0550503,65.739215 29.0550503,64.9667388 L29.0550503,17.5782077 C29.0550503,16.0546982 27.9756669,14.1849366 26.6562154,13.4231819 L3.9320255,0.34402981 Z" transform="translate(.736)" fill="url(#s)" fill-rule="nonzero"/><g transform="translate(0 1.313)"><mask id="v" fill="#fff"><use xlink:href="#t"/></mask><path d="M2.3988349,0.325111957 C1.07938337,-0.436642776 0,0.186611096 0,1.71012056 L0,49.09819 C0,50.6216995 1.07938337,52.4914611 2.3988349,53.2536775 L25.1009726,66.3618606 C26.4204242,67.1236153 27.4998075,66.5003615 27.4998075,64.976852 L27.4998075,17.5883209 C27.4998075,16.0648114 26.4204242,14.1950498 25.1009726,13.4332951 L2.3988349,0.325111957 Z" fill="url(#u)" fill-rule="nonzero" mask="url(#v)"/></g></g><g transform="translate(18 275)"><g transform="translate(0 35.965)"><mask id="y" fill="#fff"><use xlink:href="#w"/></mask><path d="M1.43888836,18.1457013 C0.479293814,17.5918954 -0.000503459888,16.8618786 -0.000503459888,16.1318617 C-0.000503459888,15.6451838 -0.000503459888,15.255136 -0.000503459888,14.9617182 L24.4530468,0.830708816 C26.370222,-0.276902939 29.5097979,-0.276902939 31.428987,0.830708816 L65.8772229,20.660113 C65.8772229,21.002377 65.8772229,21.416848 65.8772229,21.9035259 C65.8772229,22.6335427 65.3974256,23.3635596 64.4378311,23.9173655 L41.4236727,37.2046788 C39.5064974,38.3122906 36.3669216,38.3122906 34.4477325,37.2046788 L1.43888836,18.1457013 Z" fill="url(#x)" fill-rule="nonzero" mask="url(#y)"/></g><path d="M3.6954411,35.1047203 C1.776252,33.9971085 0.207470992,31.2784251 0.207470992,29.0632016 L0,0.997598233 C0.461234546,0.61845921 0.945094331,0.328338512 1.45157936,0.127236139 C2.05909435,-0.113980679 2.84267641,-0.0194302272 3.6954411,0.47272148 L36.7042852,19.5337128 C38.6234743,20.6413246 40.1922553,23.360008 40.1922553,25.5752315 L40.1922553,52.1498582 C40.1922553,53.2452372 39.8086753,54.0205558 39.1888213,54.3905956 C38.7663556,54.6427987 38.4273633,54.8473506 38.1718445,55.0042511 L3.6954411,35.1047203 Z" transform="translate(28.756)" fill="url(#z)" fill-rule="nonzero"/><path d="M31.4284835,35.7235732 C29.5092944,34.6159614 27.9405134,31.897278 27.9405134,29.6820545 L27.9405134,3.10541393 C27.9405134,0.890190419 29.5092944,-0.0160373795 31.4284835,1.09157437 L64.4373276,20.1525657 C66.3565167,21.2601775 67.9252977,23.9788609 67.9252977,26.1940844 L67.9252977,52.7687111 C67.9252977,54.9839347 66.3565167,55.8901624 64.4373276,54.7825507 L31.4284835,35.7235732 Z" fill="url(#A)" fill-rule="nonzero"/><path d="M1.43939182,18.1457013 C-0.479797273,17.0380895 -0.479797273,15.2256339 1.43939182,14.1180222 L24.4535502,0.830708816 C26.3707255,-0.276902939 29.5103013,-0.276902939 31.4294904,0.830708816 L64.4383346,19.8896863 C66.3575236,20.9972981 66.3575236,22.8097537 64.4383346,23.9173655 L41.4241761,37.2046788 C39.5070009,38.3122906 36.367425,38.3122906 34.4482359,37.2046788 L1.43939182,18.1457013 Z" transform="translate(0 34.78)" fill="url(#B)" fill-rule="nonzero"/></g><path d="M586.356277,227.868766 C606.831313,216.043745 640.336372,216.043745 660.816408,227.868766 C681.291444,239.688786 681.291444,259.033821 660.816408,270.858841 C640.336372,282.683862 606.831313,282.683862 586.356277,270.858841 C565.881241,259.033821 565.881241,239.688786 586.356277,227.868766 Z" fill="#000" opacity=".25" filter="url(#C)"/><path d="M487.356277,169.868766 C507.831313,158.043745 541.336372,158.043745 561.816408,169.868766 C582.291444,181.688786 582.291444,201.033821 561.816408,212.858841 C541.336372,224.683862 507.831313,224.683862 487.356277,212.858841 C466.881241,201.033821 466.881241,181.688786 487.356277,169.868766 Z" fill="#000" opacity=".25" filter="url(#D)"/><g transform="translate(472 141)" fill-rule="nonzero"><path d="M0.00450000793,40.3576405 C0.00450000793,35.1627309 0.00450000793,31.693535 0.00450000793,29.9500528 L105.177185,29.9500528 C105.177185,31.693535 105.177185,35.1627309 105.177185,40.3576405 C105.177185,48.1490537 100.057801,55.9409771 89.8209083,61.8531266 C69.3408722,73.6781474 35.8358131,73.6781474 15.3607771,61.8531266 C5.12388388,55.9409771 0.00450000793,48.1490537 0.00450000793,40.3576405 Z" fill="url(#E)"/><path d="M15.3562771,8.86876563 C35.8313131,-2.95625521 69.3363722,-2.95625521 89.8164083,8.86876563 C110.291444,20.6887865 110.291444,40.0338205 89.8164083,51.8588414 C69.3363722,63.6838622 35.8313131,63.6838622 15.3562771,51.8588414 C-5.11875902,40.0338205 -5.11875902,20.6887865 15.3562771,8.86876563 Z" fill="url(#F)"/><path d="M52.5851076,10.8638035 C61.3824154,10.8638035 70.1828688,12.7837342 76.8590251,16.6384974 C80.094378,18.5062322 82.5404011,20.661919 84.1896968,22.9703288 C85.8749865,25.3291171 86.7238627,27.8445732 86.7238627,30.3625685 C86.7238627,35.3546361 83.3959859,40.3137953 76.8589916,44.089129 C70.1828688,47.9438728 61.3824154,49.8638035 52.5851076,49.8638035 C43.7878278,49.8638035 34.9882129,47.9438879 28.3137395,44.0891554 C21.7766994,40.3137953 18.4488226,35.3546361 18.4488226,30.3625685 C18.4488226,27.8445732 19.2976988,25.3291171 20.9829885,22.9703288 C22.6322842,20.661919 25.0783074,18.5062322 28.3137395,16.6384516 C34.9882129,12.7837191 43.7878278,10.8638035 52.5851076,10.8638035 Z" stroke="#3BC4A1" opacity=".15"/></g><path d="M549.162864,89.6411416 C555.907621,93.5352359 559.28,98.6684053 559.28,103.801575 L559.28,171.714446 L559.28,171.714446 C559.135263,176.737965 555.764405,181.736386 549.162864,185.547794 C535.675326,193.335983 513.603192,193.335983 500.115654,185.547794 C493.51508,181.736386 490.144716,176.737965 490.004561,171.714339 L490,171.714446 L490,103.801575 L490,103.801575 C490,98.6684053 493.371885,93.5352359 500.115654,89.6411416 C513.603192,81.8529528 535.675326,81.8529528 549.162864,89.6411416 Z" fill="url(#G)" fill-rule="nonzero" opacity=".5"/><g transform="translate(571 199)" fill-rule="nonzero"><path d="M0.00450000793,40.3576405 C0.00450000793,35.1627309 0.00450000793,31.693535 0.00450000793,29.9500528 L105.177185,29.9500528 C105.177185,31.693535 105.177185,35.1627309 105.177185,40.3576405 C105.177185,48.1490537 100.057801,55.9409771 89.8209083,61.8531266 C69.3408722,73.6781474 35.8358131,73.6781474 15.3607771,61.8531266 C5.12388388,55.9409771 0.00450000793,48.1490537 0.00450000793,40.3576405 Z" fill="url(#E)"/><path d="M15.3562771,8.86876563 C35.8313131,-2.95625521 69.3363722,-2.95625521 89.8164083,8.86876563 C110.291444,20.6887865 110.291444,40.0338205 89.8164083,51.8588414 C69.3363722,63.6838622 35.8313131,63.6838622 15.3562771,51.8588414 C-5.11875902,40.0338205 -5.11875902,20.6887865 15.3562771,8.86876563 Z" fill="url(#F)"/><path d="M52.586285,10.86 C61.3835928,10.86 70.1840462,12.7799307 76.8602026,16.6346939 C80.0955554,18.5024287 82.5415785,20.6581155 84.1908742,22.9665253 C85.8761639,25.3253135 86.7250401,27.8407697 86.7250401,30.358765 C86.7250401,35.3508326 83.3971634,40.3099918 76.860169,44.0853255 C70.1840462,47.9400693 61.3835928,49.86 52.586285,49.86 C43.7890052,49.86 34.9893903,47.9400844 28.3149169,44.0853519 C21.7778768,40.3099918 18.45,35.3508326 18.45,30.358765 C18.45,27.8407697 19.2988762,25.3253135 20.9841659,22.9665253 C22.6334616,20.6581155 25.0794848,18.5024287 28.3149169,16.6346481 C34.9893903,12.7799156 43.7890052,10.86 52.586285,10.86 Z" stroke="#3BC4A1" opacity=".15"/></g><path d="M648.162864,147.541142 C654.907621,151.435236 658.28,156.568405 658.28,161.701575 L658.28,229.614446 L658.28,229.614446 C658.135263,234.637965 654.764405,239.636386 648.162864,243.447794 C634.675326,251.235983 612.603192,251.235983 599.115654,243.447794 C592.51508,239.636386 589.144716,234.637965 589.004561,229.614339 L589,229.614446 L589,161.701575 L589,161.701575 C589,156.568405 592.371885,151.435236 599.115654,147.541142 C612.603192,139.752953 634.675326,139.752953 648.162864,147.541142 Z" fill="url(#G)" fill-rule="nonzero" opacity=".5"/><path d="M387.356277,112.868766 C407.831313,101.043745 441.336372,101.043745 461.816408,112.868766 C482.291444,124.688786 482.291444,144.033821 461.816408,155.858841 C441.336372,167.683862 407.831313,167.683862 387.356277,155.858841 C366.881241,144.033821 366.881241,124.688786 387.356277,112.868766 Z" fill="#000" opacity=".25" filter="url(#H)"/><g transform="translate(372 84)" fill-rule="nonzero"><path d="M0.00450000793,40.3576405 C0.00450000793,35.1627309 0.00450000793,31.693535 0.00450000793,29.9500528 L105.177185,29.9500528 C105.177185,31.693535 105.177185,35.1627309 105.177185,40.3576405 C105.177185,48.1490537 100.057801,55.9409771 89.8209083,61.8531266 C69.3408722,73.6781474 35.8358131,73.6781474 15.3607771,61.8531266 C5.12388388,55.9409771 0.00450000793,48.1490537 0.00450000793,40.3576405 Z" fill="url(#E)"/><path d="M15.3562771,8.86876563 C35.8313131,-2.95625521 69.3363722,-2.95625521 89.8164083,8.86876563 C110.291444,20.6887865 110.291444,40.0338205 89.8164083,51.8588414 C69.3363722,63.6838622 35.8313131,63.6838622 15.3562771,51.8588414 C-5.11875902,40.0338205 -5.11875902,20.6887865 15.3562771,8.86876563 Z" fill="url(#F)"/><path d="M52.586285,10.86 C61.3835928,10.86 70.1840462,12.7799307 76.8602026,16.6346939 C80.0955554,18.5024287 82.5415785,20.6581155 84.1908742,22.9665253 C85.8761639,25.3253135 86.7250401,27.8407697 86.7250401,30.358765 C86.7250401,35.3508326 83.3971634,40.3099918 76.860169,44.0853255 C70.1840462,47.9400693 61.3835928,49.86 52.586285,49.86 C43.7890052,49.86 34.9893903,47.9400844 28.3149169,44.0853519 C21.7778768,40.3099918 18.45,35.3508326 18.45,30.358765 C18.45,27.8407697 19.2988762,25.3253135 20.9841659,22.9665253 C22.6334616,20.6581155 25.0794848,18.5024287 28.3149169,16.6346481 C34.9893903,12.7799156 43.7890052,10.86 52.586285,10.86 Z" stroke="#3BC4A1" opacity=".15"/></g><path d="M449.162864,32.6411416 C455.907621,36.5352359 459.28,41.6684053 459.28,46.8015746 L459.28,114.714446 L459.28,114.714446 C459.135263,119.737965 455.764405,124.736386 449.162864,128.547794 C435.675326,136.335983 413.603192,136.335983 400.115654,128.547794 C393.51508,124.736386 390.144716,119.737965 390.004561,114.714339 L390,114.714446 L390,46.8015746 L390,46.8015746 C390,41.6684053 393.371885,36.5352359 400.115654,32.6411416 C413.603192,24.8529528 435.675326,24.8529528 449.162864,32.6411416 Z" fill="url(#G)" fill-rule="nonzero" opacity=".5"/><g transform="translate(250.366 57.997)"><path d="M25.5937951,277.433902 C-8.53126503,257.728868 -8.53126503,225.483811 25.5937951,205.778776 C59.7188552,186.073741 115.563954,186.073741 149.689014,205.778776 C183.819074,225.483811 183.819074,257.728868 149.689014,277.433902 C115.563954,297.138937 59.7188552,297.138937 25.5937951,277.433902" fill="#000" opacity=".25" filter="url(#I)"/><g transform="translate(0 171)" fill-rule="nonzero"><path d="M25.5937951,96.4339023 C-8.53126503,76.7288676 -8.53126503,44.4838108 25.5937951,24.778776 C59.7188552,5.07374132 115.563954,5.07374132 149.689014,24.778776 C183.819074,44.4838108 183.819074,76.7288676 149.689014,96.4339023 C115.563954,116.138937 59.7188552,116.138937 25.5937951,96.4339023" fill="url(#J)" opacity=".8"/><path d="M25.5937951,86.4339023 C-8.53126503,66.7288676 -8.53126503,34.4838108 25.5937951,14.778776 C59.7188552,-4.92625868 115.563954,-4.92625868 149.689014,14.778776 C183.819074,34.4838108 183.819074,66.7288676 149.689014,86.4339023 C115.563954,106.138937 59.7188552,106.138937 25.5937951,86.4339023" fill="url(#K)"/></g><path d="M149.689014,14.778776 C166.754044,24.6312934 175.286559,37.6188163 175.286559,50.6063392 L175.286559,222.433902 L175.286559,222.433902 L175.275026,222.433345 C174.920485,235.143807 166.391814,247.790519 149.689014,257.433902 C115.563954,277.138937 59.7188552,277.138937 25.5937951,257.433902 C8.89344138,247.790519 0.366020198,235.143807 0.0115315582,222.433345 L-2.84217094e-14,222.433902 L-2.84217094e-14,50.6063392 L-2.84217094e-14,50.6063392 C-2.84217094e-14,37.6188163 8.53126503,24.6312934 25.5937951,14.778776 C59.7188552,-4.92625868 115.563954,-4.92625868 149.689014,14.778776 Z" fill="url(#L)" fill-rule="nonzero" opacity=".6"/><g transform="translate(65.634 144.003)"><use fill="url(#M)" opacity=".76" xlink:href="#N" transform="translate(14.816)"/><path d="M2.60274529,9.50222433 L6.12619463,7.45454435 C6.13419338,7.44954514 6.14319198,7.44454592 6.15119073,7.4395467 L2.62774139,9.48722668 C2.61974264,9.4922259 2.61074404,9.49722511 2.60274529,9.50222433" fill="#FDBF21"/><polygon fill="#FDBF21" points="14.6143681 17.2380153 18.1378174 15.1903354 24.3858409 26.0056451 20.8623916 28.0533251"/><polygon fill="#FDBF21" points="2.62824131 9.48752663 6.15169065 7.43984665 18.178811 0.585917814 14.6553617 2.63359779"/><path d="M14.6558616,2.63339782 C13.9289303,3.04905286 15.9979403,4.81241061 20.8628915,7.92347107 L20.8628915,28.0534251 L15.2067755,31.2769213 C15.0138056,31.3859043 14.8148367,31.4798896 14.6108686,31.5578774 C14.5768739,31.5708753 14.5428792,31.5798739 14.5088845,31.5918721 C14.4388955,31.6168682 14.3699063,31.6418642 14.2989174,31.662861 C14.1949336,31.6938561 14.08995,31.7208519 13.9839666,31.7448482 C12.6841697,32.0298036 11.2034011,31.7688444 9.69663663,31.054956 L8.09088758,30.1281008 C6.1481912,28.8063074 4.25448715,26.7816238 2.74672279,24.2500195 L2.59474654,23.9950593 C2.37478092,23.6141189 2.17181264,23.2361779 1.98184233,22.858237 C1.78287343,22.4602992 1.61190015,22.090357 1.45392484,21.7214147 C1.36093937,21.5044486 1.28895062,21.3294759 1.2199614,21.1555031 C1.1239764,20.9075419 1.06398578,20.7485667 1.00699468,20.5885917 C0.935005936,20.3866233 0.873015624,20.2066514 0.815024687,20.0276794 C0.796027656,19.9706883 0.778030468,19.9136972 0.761033125,19.8567061 C0.749035,19.8207117 0.737036875,19.7837175 0.726038594,19.7467233 C0.712040782,19.70373 0.700042657,19.6607367 0.687044688,19.6187433 C0.672047032,19.5677512 0.657049376,19.5177591 0.64205172,19.4677669 C0.619055314,19.3877794 0.597058751,19.3087917 0.575062189,19.2298041 C0.552065783,19.1478169 0.541067502,19.1058234 0.530069221,19.0628302 C0.468078909,18.8278669 0.410087972,18.5939034 0.359095941,18.3629395 C0.335099692,18.2549564 0.317102504,18.1719694 0.300105161,18.0899822 C0.282107973,17.9989964 0.264110786,17.9090105 0.248113286,17.8200244 C0.224117036,17.688045 0.211119068,17.6190558 0.200120787,17.5510664 C0.194121724,17.515072 0.188122662,17.4800775 0.183123443,17.4440831 C0.174124849,17.3910914 0.165126256,17.3370999 0.157127506,17.2841081 C0.139130319,17.157128 0.128132037,17.0831396 0.1181336,17.0091511 C0.0871384441,16.7701885 0.0621423506,16.5332255 0.0431453196,16.3002619 C0.0341467259,16.1892792 0.0311471947,16.1402869 0.0271478197,16.0912946 C0.0251481323,16.0543003 0.022148601,16.018306 0.0201489136,15.9823116 C0.0131500074,15.8403338 0.0101504762,15.7843425 0.00815078868,15.7283513 C0.00315156998,15.5883732 0,15.448395 0,15.3104166 C-0.000847804983,15.077453 0.00315156998,14.9244769 0.0101504762,14.7735005 C0.0121501636,14.7095105 0.0151496949,14.6725163 0.0171493823,14.6365219 C0.0321470384,14.354566 0.0581429757,14.079609 0.095137194,13.8126507 C0.133131256,13.5516915 0.168125787,13.3487232 0.211119068,13.1507541 C0.270109849,12.8877952 0.32410141,12.6868266 0.384092035,12.4918571 C0.416087035,12.3888732 0.450081722,12.287889 0.486076096,12.1879046 C0.54306719,12.0359284 0.562064221,11.9859362 0.582061095,11.935944 C0.619055314,11.8479577 0.640052032,11.7989654 0.662048595,11.749973 C0.7010425,11.6619868 0.742036094,11.5770001 0.785029375,11.4930132 C0.83202203,11.4000277 0.88001453,11.3080421 0.931006561,11.219056 C1.03399047,11.0410838 1.13497468,10.8861081 1.24395765,10.7381312 C1.25995515,10.7151348 1.27695249,10.6941381 1.29294999,10.6721415 C1.35394046,10.592154 1.41693062,10.5131663 1.48192046,10.4371782 C1.56790702,10.3381937 1.6518939,10.2482077 1.73788046,10.163221 C1.84086436,10.0622368 1.94784764,9.9682515 2.0588303,9.87826556 C2.18880999,9.77328197 2.32478873,9.67429744 2.46676655,9.5843115 C2.51975826,9.55131666 2.57374983,9.51832182 2.62874123,9.48732666 L14.6558616,2.63339782 Z" fill="#FDBF21"/><polygon fill="#49BD9E" points="14.6558616 2.63339782 18.1793109 0.585717845 18.3392859 0.501730971 14.8158366 2.54941095"/><path d="M30.1814352,14.8502885 L38.424147,29.1330563 L25.6791388,36.3959213 L20.8628915,28.0532251 L20.8628915,23.639516 L22.4826384,15.1903354 C27.9897777,15.7895084 29.672848,14.1500646 27.5318493,10.272004 L30.1814352,14.8502885 Z" fill="#0FA5A5"/><path d="M30.8881247 7.92247122 27.3646754 9.9701512C27.3576765 9.95715323 27.3496777 9.94515511 27.3426788 9.93315699L27.3396793 9.93515667 27.3656752 9.97115105 30.8891246 7.92347107 30.8881247 7.92247122ZM23.6224602 5.22709247C23.5394732 5.1501045 23.4554863 5.07611607 23.3724993 5.00212763 23.3714995 5.00112779 23.3714995 5.00112779 23.3704996 5.00012794 23.4554863 5.07511622 23.5394732 5.1501045 23.6224602 5.22709247ZM23.2585171 4.90014357C23.2585171 4.90014357 23.2585171 4.90014357 23.2585171 4.89914372 23.2235226 4.86914841 23.1875282 4.84015294 23.1525337 4.81015763 23.1875282 4.84015294 23.2235226 4.86914841 23.2585171 4.90014357L23.2585171 4.90014357ZM23.5994638 2.67349156 24.1853723 2.33254484C23.9924024 2.44552719 23.796433 2.55950937 23.5994638 2.67349156L23.5994638 2.67349156ZM23.9804043 5.56803919C23.9074157 5.49605044 23.8334273 5.42606137 23.7594388 5.35607231 23.8334273 5.42706122 23.9084155 5.49705028 23.9814041 5.56903903 23.9814041 5.56903903 23.9814041 5.56903903 23.9804043 5.56803919L23.9804043 5.56803919ZM24.3353488 5.9249834C24.2683593 5.85599418 24.2003699 5.78800481 24.1333804 5.72001543 24.1313807 5.71901559 24.1303809 5.7170159 24.1283812 5.71601606 24.1973704 5.78500528 24.2663596 5.8539945 24.3353488 5.9249834 24.3353488 5.9249834 24.3353488 5.9249834 24.3353488 5.9249834L24.3353488 5.9249834ZM24.3043537 2.26355563 24.8322712 1.95760344C24.6612979 2.05658797 24.4843255 2.15957188 24.3043537 2.26355563L24.3043537 2.26355563ZM26.3440349 8.36960134C26.3440349 8.36960134 26.3440349 8.36960134 26.3430351 8.36960134 26.2970422 8.30361166 26.2510494 8.23862181 26.2040568 8.17363197 26.2040568 8.17263213 26.2040568 8.17163228 26.2030569 8.17163228 26.2500496 8.23762197 26.2970422 8.30361166 26.3440349 8.36960134L26.3440349 8.36960134ZM26.6539865 8.82553009C26.6099933 8.7595404 26.5660002 8.69355072 26.5220071 8.62756103 26.5210072 8.62656119 26.5210072 8.62656119 26.5200074 8.62556134 26.5650004 8.69255087 26.6099933 8.7595404 26.6539865 8.82652993 26.6539865 8.82652993 26.6539865 8.82553009 26.6539865 8.82553009L26.6539865 8.82553009ZM26.9569391 9.29545665C26.9229444 9.24046524 26.8879499 9.18647368 26.8539552 9.13248212 26.8889497 9.18747352 26.9239443 9.24346477 26.9589388 9.29945602 26.957939 9.29845618 26.957939 9.29645649 26.9569391 9.29545665L26.9569391 9.29545665ZM26.88695 2.9464489C26.8529554 2.91545374 26.8179608 2.88445859 26.7829663 2.85346343 26.8179608 2.88445859 26.8529554 2.91545374 26.88695 2.9464489L26.88695 2.9464489ZM27.2738896 3.30039358C27.2318961 3.26039983 27.1889029 3.21940624 27.1459096 3.17941249 27.1889029 3.21940624 27.2318961 3.26039983 27.2738896 3.30039358L27.2738896 3.30039358ZM30.1774358 6.77785011C30.2364266 6.8668362 30.2944175 6.9558223 30.3524085 7.04580823 30.2774202 6.92882652 30.2004322 6.81284464 30.1234442 6.69786261 30.1414414 6.72485839 30.1594386 6.75085433 30.1774358 6.77785011L30.1774358 6.77785011ZM30.6513617 7.52473338C30.5953705 7.43174792 30.5383794 7.33976229 30.4803884 7.24877651 30.5383794 7.33976229 30.5953705 7.43174792 30.6513617 7.52473338L30.6513617 7.52473338ZM29.4025569 5.68402106C29.4515492 5.7490109 29.5005416 5.81500059 29.5495339 5.88099028 29.6095246 5.96197762 29.6685153 6.04296496 29.7275061 6.12595199 29.7744988 6.19094184 29.8204916 6.25593168 29.8664844 6.32192137 29.926475 6.40690808 29.9854658 6.49289464 30.0444566 6.57888121 29.779498 6.18894215 29.5055408 5.8130009 29.2245847 5.45205731 29.2835755 5.52904528 29.3435661 5.60603325 29.4025569 5.68402106L29.4025569 5.68402106ZM28.5536896 4.63618482C28.6116805 4.70317435 28.6686716 4.77116372 28.7266625 4.8391531 28.7816539 4.90414294 28.8376452 4.97113247 28.8926366 5.038122 28.9506275 5.10811107 29.0086185 5.18009981 29.0666094 5.25208856 28.864641 5.00012794 28.659673 4.75616607 28.4507057 4.52020295 28.4847003 4.55919685 28.5196949 4.59719091 28.5536896 4.63618482L28.5536896 4.63618482ZM28.0207728 4.0482767C27.9667813 3.99028576 27.9127897 3.93329467 27.8587982 3.87730342 27.9127897 3.93329467 27.9667813 3.99128561 28.0207728 4.0482767L28.0207728 4.0482767ZM28.3757174 4.43521623C28.320726 4.37322592 28.2647347 4.3112356 28.2097433 4.25024514 28.2647347 4.3112356 28.320726 4.37322592 28.3757174 4.43521623L28.3757174 4.43521623ZM27.6518305 3.66833608C27.6028382 3.61934374 27.5548457 3.56935155 27.5048535 3.52135905 27.5548457 3.56935155 27.6028382 3.61934374 27.6518305 3.66833608L27.6518305 3.66833608ZM21.7577517 3.74332436 22.2076813 3.48236514C22.0527056 3.57235108 21.9017292 3.66033733 21.7577517 3.74332436L21.7577517 3.74332436ZM21.7577517 3.74332436C21.8937304 3.83431014 22.0297092 3.93029514 22.1646881 4.02827983 22.0297092 3.93029514 21.8937304 3.83431014 21.7577517 3.74332436L21.7577517 3.74332436ZM22.7355988 3.17541312 22.8545802 3.1064239C22.8145865 3.1294203 22.7745927 3.15241671 22.7355988 3.17541312L22.7355988 3.17541312ZM22.5286312 4.30023732C22.6496123 4.39322279 22.7695935 4.48920779 22.8895748 4.58719248 22.7755926 4.49420701 22.6616104 4.40322123 22.5286312 4.30023732L22.5286312 4.30023732Z" fill="#00B7B7"/><polygon fill="#00B7B7" points="27.2799886 24.3961966 30.803438 22.3485167 30.9574139 22.2605304 27.4339646 24.3082104"/><path d="M39.0987415,30.3013737 C42.5981946,36.3554276 42.5801974,42.898405 39.0577479,44.8990923 L38.903772,44.9860788 C38.8487806,45.0140744 38.7937892,45.04207 38.7377979,45.0670661 C38.6508115,45.10606 38.6098179,45.1240572 38.5688244,45.1410545 C38.5488275,45.1490533 38.5288306,45.157052 38.5088337,45.1650508 C38.4718395,45.1790486 38.4348453,45.1940463 38.3978511,45.2080441 C38.3748547,45.2160428 38.3518583,45.2230417 38.3298617,45.2310405 C38.2938673,45.2430386 38.2578729,45.2560366 38.2218786,45.2680347 C38.199882,45.2750336 38.1778854,45.2810327 38.1558889,45.2870317 C38.1188947,45.29803 38.0829003,45.3090283 38.0459061,45.3200266 C38.0179105,45.3270255 37.9879151,45.3340244 37.9589197,45.3420231 C37.9289244,45.349022 37.898929,45.3570208 37.8679339,45.3640197 C37.8359389,45.3720184 37.802944,45.3780175 37.7699492,45.3850164 C37.7419536,45.3910155 37.7149578,45.3970145 37.6869622,45.4020138 C37.655967,45.4080128 37.6229722,45.4140119 37.5909772,45.4190111 C37.5609819,45.4240103 37.5319864,45.4290095 37.5019911,45.4340088 C37.4719958,45.4380081 37.4420005,45.4420075 37.4120051,45.4460069 C37.3800101,45.4500063 37.3480151,45.4550055 37.3160201,45.458005 C37.285025,45.4620044 37.2540298,45.4640041 37.2230347,45.4670036 C37.1910397,45.4700031 37.1600445,45.4730027 37.1280495,45.4760022 C37.0970544,45.4780019 37.0660592,45.4790017 37.0350641,45.4810014 C37.0030691,45.4830011 36.9700742,45.4850008 36.9380792,45.4860006 C36.9060842,45.4870005 36.8730894,45.4880003 36.8410944,45.4880003 C36.8090994,45.4890002 36.7781042,45.49 36.7461092,45.49 C36.7131144,45.49 36.6801195,45.4890002 36.6471247,45.4890002 C36.6161295,45.4880003 36.5841345,45.4880003 36.5521395,45.4870005 C36.5191447,45.4860006 36.4861498,45.4840009 36.453155,45.4820013 C36.4201602,45.4810014 36.3881652,45.4790017 36.3561702,45.477002 C36.3231753,45.4750023 36.2901805,45.4720028 36.2571856,45.4700031 C36.2241908,45.4670036 36.1911959,45.4640041 36.1582011,45.4610045 C36.1262061,45.458005 36.0952109,45.4540056 36.0632159,45.4510061 C36.0282214,45.4470067 35.9942267,45.4430073 35.9592322,45.4380081 C35.9262373,45.4340088 35.8932425,45.4290095 35.8612475,45.4240103 C35.8272528,45.4190111 35.7932581,45.4150117 35.7592634,45.4090127 C35.7252688,45.4040134 35.6912741,45.3970145 35.6572794,45.3910155 C35.6252844,45.3860163 35.5922895,45.3800172 35.5592947,45.3740181 C35.5253,45.3670192 35.4903055,45.3600203 35.4543111,45.3520216 C35.4213163,45.3460225 35.3883214,45.3390236 35.3553266,45.3310248 C35.3213319,45.3240259 35.2873372,45.3160272 35.2533425,45.3080284 C35.2193478,45.3000297 35.1853531,45.2920309 35.1513584,45.2830323 C35.1183636,45.2750336 35.0843689,45.266035 35.0513741,45.2570364 C35.0153797,45.247038 34.9793853,45.2380394 34.943391,45.2280409 C34.9123958,45.2190423 34.8804008,45.2090439 34.8484058,45.2000453 C34.8124114,45.189047 34.7754172,45.1780488 34.738423,45.1670505 C34.7044283,45.1560522 34.6714335,45.1460538 34.6374388,45.1350555 C34.6024442,45.1230573 34.5674497,45.1120591 34.5324552,45.1000609 C34.4984605,45.0890627 34.4644658,45.0760647 34.4294713,45.0640666 C34.3954766,45.0520684 34.3604821,45.0400703 34.3254875,45.0270723 C34.290493,45.0140744 34.2564983,45.0010764 34.2215038,44.9880784 C34.1865092,44.9750805 34.1515147,44.9610827 34.1155203,44.9470848 C34.0815256,44.9340869 34.0465311,44.9200891 34.0125364,44.9060913 C33.9775419,44.8910936 33.9425474,44.8770958 33.9075528,44.8620981 C33.8735581,44.8481003 33.8385636,44.8331027 33.8035691,44.818105 C33.7685746,44.8021075 33.7325802,44.7871099 33.6975857,44.7711124 C33.6625911,44.7551149 33.6275966,44.7391174 33.5926021,44.7231199 C33.5576075,44.7071224 33.5236128,44.6911249 33.4886183,44.6741275 C33.4536238,44.65813 33.4186292,44.6411327 33.3846346,44.6241353 C33.3476403,44.6061381 33.311646,44.5881409 33.2746517,44.5691439 C33.2416569,44.5531464 33.2086621,44.5361491 33.1756672,44.5191517 C33.138673,44.5001547 33.1026786,44.4811577 33.0656844,44.4621606 C33.0316897,44.4431636 32.9966952,44.4251664 32.9627005,44.4061694 C32.9267061,44.3861725 32.8907118,44.3671755 32.8547174,44.3471786 C32.8207227,44.3281816 32.786728,44.3081847 32.7527333,44.2891877 C32.7167389,44.2691908 32.6807446,44.2481941 32.6447502,44.2271974 C32.6087558,44.2062006 32.5727614,44.1852039 32.5377669,44.1632074 C32.5017725,44.1422106 32.466778,44.1212139 32.4317835,44.0992174 C32.3947893,44.0772208 32.357795,44.0542244 32.3218007,44.031228 C32.2868061,44.0102313 32.2528114,43.9892345 32.2188168,43.967238 C32.1828224,43.9432417 32.1458282,43.9202453 32.1098338,43.8962491 C32.0738394,43.8732527 32.037845,43.8492564 32.0018507,43.8252602 C31.967856,43.8022638 31.9328614,43.7792674 31.8978669,43.7552711 C31.8618725,43.7312749 31.8258782,43.7062788 31.7898838,43.6812827 C31.7548893,43.6572864 31.7198947,43.6322903 31.6849002,43.6072942 C31.6489058,43.5812983 31.6119116,43.5563022 31.5759172,43.5303063 C31.5409227,43.5043103 31.5059282,43.4793142 31.4709336,43.4533183 C31.4359391,43.4273224 31.4009446,43.4023263 31.3669499,43.3763303 C31.3299557,43.3493346 31.2939613,43.3213389 31.2579669,43.2933433 C31.2229724,43.2673474 31.1879779,43.2403516 31.1529833,43.2133558 C31.1179888,43.18636 31.0829943,43.1583644 31.0479997,43.1303688 C31.0130052,43.1023731 30.9780107,43.0753774 30.9430161,43.0473817 C30.9070218,43.0183863 30.8710274,42.988391 30.835033,42.9593955 C30.8010383,42.9313999 30.7670436,42.9034042 30.733049,42.8744088 C30.6980544,42.8454133 30.6630599,42.8164178 30.6280654,42.7864225 C30.5930708,42.7564272 30.5580763,42.7264319 30.5230818,42.6964366 C30.4880872,42.6664413 30.4540926,42.636446 30.419098,42.6064507 C30.3841035,42.5754555 30.349109,42.5444603 30.3151143,42.5134652 C30.2801197,42.48247 30.2461251,42.4514749 30.2111305,42.4204797 C30.1771358,42.3894846 30.1431412,42.3584894 30.1091465,42.3264944 C30.0741519,42.2944994 30.0391574,42.2615046 30.003163,42.2275099 C29.9701682,42.1965147 29.9361735,42.1655196 29.9031787,42.1335246 C29.8681841,42.0995299 29.8331896,42.066535 29.7981951,42.0325403 C29.7652002,42.0005453 29.7322054,41.9685503 29.6992105,41.9355555 C29.6632162,41.900561 29.6282216,41.8645666 29.5922273,41.8295721 C29.5602323,41.7975771 29.5282373,41.7655821 29.4962423,41.7335871 C29.4612477,41.6975927 29.4262532,41.6615983 29.3912587,41.6256039 C29.3592637,41.5916093 29.3262688,41.5576146 29.293274,41.52262 C29.2602791,41.4886254 29.2282841,41.4546307 29.1962891,41.4196361 C29.1612946,41.3826419 29.1272999,41.3466475 29.0923054,41.3096533 C29.0603104,41.2736589 29.0273155,41.2386644 28.9953205,41.20267 C28.9623257,41.1656758 28.928331,41.1296815 28.8953362,41.0916874 C28.8613415,41.0546932 28.8283466,41.0166991 28.794352,40.978705 C28.7633568,40.9427107 28.7313618,40.9067163 28.7003666,40.8707219 C28.6653721,40.8307282 28.6303776,40.7897346 28.595383,40.748741 C28.5653877,40.7137465 28.5353924,40.6787519 28.5053971,40.6437574 C28.4714024,40.6037636 28.4384076,40.5637699 28.4054127,40.5237761 C28.3744176,40.4857821 28.3424226,40.447788 28.3114274,40.409794 C28.2794324,40.3708001 28.2484373,40.3318061 28.2164423,40.2918124 C28.1844473,40.2528185 28.1524523,40.2128247 28.1204573,40.172831 C28.090462,40.1338371 28.0594668,40.0948432 28.0294715,40.0558493 C27.9964766,40.0138558 27.9644816,39.9728622 27.9324866,39.9308688 C27.9014915,39.8908751 27.8704963,39.8498815 27.8395012,39.8088879 C27.808506,39.7678943 27.7775109,39.7279005 27.7475156,39.6869069 C27.712521,39.6399143 27.6785263,39.5939215 27.6445316,39.5469288 C27.6185357,39.5109344 27.5915399,39.4749401 27.565544,39.4379458 C27.5315493,39.3909532 27.4975546,39.3439605 27.4645598,39.2969679 C27.437564,39.257974 27.4095684,39.2199799 27.3825726,39.180986 C27.3525773,39.1389926 27.3235818,39.0959993 27.2945863,39.053006 C27.2635912,39.0090129 27.2335959,38.9660196 27.2036006,38.9210266 C27.1706057,38.8730341 27.1386107,38.8240418 27.1056159,38.7750494 C27.0806198,38.7370554 27.0546238,38.6990613 27.0296277,38.6610673 C26.9946332,38.6070757 26.9596387,38.5530841 26.9246442,38.4990926 C26.9016478,38.4630982 26.8786513,38.4281037 26.8556549,38.3921093 C26.8256596,38.3441168 26.7956643,38.2971241 26.7666688,38.2501315 C26.7386732,38.2061384 26.7116774,38.1621452 26.6846817,38.1191519 C26.6436881,38.0531623 26.6046942,37.9871726 26.5647004,37.9211829 C26.4627163,37.7522093 26.4077249,37.658224 26.3537334,37.5642387 L25.6798387,36.3964212 L25.6798387,35.0188191 L31.3378544,26.0132685 L30.1811352,14.8507884 L39.0987415,30.3013737 Z" fill="#0FA5A5"/><path d="M27.3401792,9.93465675 L27.3651753,9.97165097 L27.5371484,10.2686046 L27.5321492,10.2716041 C27.5121523,10.2366096 27.4931553,10.201615 27.4741583,10.1656207 L27.3401792,9.93465675 Z" fill="#00B7B7"/><path d="M29.9094777,18.3521412 C29.9084778,18.3041487 29.9084778,18.2561562 29.907478,18.2081637 C29.9034786,18.0921819 29.8954799,17.9742003 29.888481,17.8562187 C29.8854814,17.8102259 29.8844816,17.765233 29.881482,17.7192401 C29.8724835,17.5992589 29.8604853,17.4782778 29.8484872,17.3572967 C29.8444878,17.3113039 29.8414883,17.2653111 29.8364891,17.2193183 C29.8224913,17.0963375 29.8064938,16.971357 29.7894964,16.8463766 C29.7834974,16.8013836 29.7784981,16.7573905 29.7724991,16.7123975 C29.7545019,16.5854173 29.7325053,16.4584372 29.7115086,16.3304572 C29.7035099,16.2854642 29.6975108,16.2414711 29.6895121,16.1964781 C29.6665156,16.069498 29.6405197,15.941518 29.6145238,15.813538 C29.6055252,15.7665453 29.5965266,15.7205525 29.5865281,15.6735598 C29.5595324,15.5435802 29.5285372,15.4136005 29.4975421,15.2836208 C29.4875436,15.2366281 29.4775452,15.1916352 29.4655471,15.1456424 C29.4335521,15.013663 29.3985575,14.8816836 29.3625631,14.7497042 C29.3495652,14.7037114 29.3385669,14.6577186 29.3255689,14.610726 C29.2895746,14.4807463 29.2495808,14.3487669 29.2095871,14.2177874 C29.1945894,14.168795 29.1815914,14.1198027 29.1655939,14.0708103 C29.1246003,13.938831 29.0806072,13.8058517 29.0356142,13.6738724 C29.0196167,13.6258799 29.0046191,13.5778874 28.9876217,13.5298949 C28.9416289,13.3959158 28.8926366,13.2619367 28.8426444,13.1279577 C28.8246472,13.0799652 28.8086497,13.0329725 28.7906525,12.9839802 C28.7396605,12.8520008 28.6866688,12.7190216 28.6326772,12.5860424 C28.6126803,12.5360502 28.5936833,12.486058 28.5726866,12.4360658 C28.518695,12.3050863 28.4617039,12.1741068 28.4047128,12.0421274 C28.3817164,11.9901355 28.3607197,11.9391435 28.3377233,11.8871516 C28.2787325,11.7571719 28.2177421,11.6271922 28.1567516,11.4972125 C28.1317555,11.4442208 28.1077593,11.3902293 28.0817633,11.3372375 C28.0207728,11.2102574 27.955783,11.0822774 27.891793,10.9552972 C27.8637974,10.899306 27.8358018,10.8433147 27.8068063,10.7873235 C27.7418164,10.6613432 27.6738271,10.5353629 27.6058377,10.4093826 C27.5618446,10.3283952 27.5188513,10.2474079 27.4738583,10.1664205 L27.3648754,9.97045116 C27.302885,9.86346788 27.2398949,9.75848428 27.1759049,9.65350069 C27.1539083,9.61650647 27.1319118,9.5805121 27.1099152,9.54351788 C27.059923,9.46053085 27.008931,9.37854366 26.9569391,9.29655648 C26.9489404,9.28255866 26.9399418,9.26856085 26.9309432,9.25556288 C26.8969485,9.20157132 26.8639536,9.14757976 26.8289591,9.0935882 C26.771968,9.00360226 26.7129772,8.91461617 26.6539865,8.82563007 C26.6359893,8.79863429 26.6179921,8.77263836 26.6009947,8.74564258 C26.573999,8.70564883 26.548003,8.66565508 26.5210072,8.62666117 C26.4620165,8.53967476 26.4030257,8.45468805 26.3440349,8.36970133 C26.2970422,8.30371164 26.2510494,8.2387218 26.2040568,8.17273211 C26.145066,8.09074493 26.0860752,8.00975758 26.0260846,7.92877024 C25.9770922,7.86278055 25.9280999,7.79679087 25.8791076,7.73180102 C25.8201168,7.65381321 25.7601262,7.5758254 25.7001355,7.49883743 C25.6491435,7.43284774 25.5971516,7.3678579 25.5451597,7.30286806 C25.486169,7.22987947 25.428178,7.15689087 25.3691873,7.08590197 C25.3141958,7.01891244 25.2582046,6.95192291 25.2032132,6.88693306 C25.1452223,6.81894369 25.0882312,6.75095431 25.0302402,6.68396478 C24.9722493,6.61697525 24.9132585,6.55098557 24.8542677,6.48499588 C24.7982765,6.42200572 24.7422852,6.35901557 24.6852941,6.29702526 C24.6393013,6.24703307 24.5933085,6.19804073 24.5463159,6.14804854 C24.5303184,6.1310512 24.513321,6.11305401 24.4973235,6.09505682 C24.4433319,6.03806573 24.3893404,5.98107463 24.3353488,5.92508339 C24.2673594,5.85409448 24.1973704,5.78510526 24.1283812,5.71611604 C24.0793888,5.6671237 24.0313963,5.61713151 23.982404,5.56913901 C23.9084155,5.49715026 23.8334273,5.4271612 23.7594388,5.3561723 C23.758439,5.35517245 23.7574391,5.35417261 23.7564393,5.35317277 C23.7114463,5.31117933 23.6674532,5.26918589 23.6224602,5.22719245 C23.5394732,5.15020449 23.4554863,5.07521621 23.3704996,5.00022793 C23.3335054,4.96723308 23.2965112,4.9332384 23.2585171,4.90024355 C23.2235226,4.8692484 23.1875282,4.84025293 23.1525337,4.81025762 C23.0915432,4.75826574 23.0305527,4.70527402 22.9685624,4.65428199 C22.9435663,4.63328527 22.9175704,4.61028887 22.8915745,4.58929215 C22.8915745,4.58929215 22.8905746,4.5882923 22.8895748,4.58729246 C22.7695935,4.48930777 22.6496123,4.39332278 22.5286312,4.30033731 C22.5256317,4.29733778 22.523632,4.29533809 22.5206324,4.2933384 C22.4026509,4.20235262 22.2836695,4.11436637 22.1646881,4.02837981 C22.0297092,3.93039512 21.8937304,3.83441013 21.7577517,3.74342434 L20.2789828,2.88955779 C18.2992922,1.93370718 16.361595,1.75273546 14.8158366,2.54961092 L14.6558616,2.63359779 C11.1394111,4.64428355 11.121414,11.1802621 14.6138681,17.2383153 L20.8628915,28.053625 L27.2798886,24.3961966 L27.4338646,24.3082104 C27.5358486,24.2442204 27.635833,24.176231 27.731818,24.1032424 C27.7608135,24.0822457 27.7868094,24.0582495 27.814805,24.0362529 C27.8807947,23.9832612 27.9477843,23.9312693 28.0107744,23.875278 C28.0467688,23.843283 28.0797636,23.8082885 28.1137583,23.7752937 C28.16675,23.7253015 28.2207416,23.6763091 28.2707338,23.6233174 C28.3087278,23.5843235 28.3437224,23.5413302 28.3807166,23.5003366 C28.4247097,23.4503445 28.4697027,23.402352 28.5116961,23.3513599 C28.5526897,23.3003679 28.5906838,23.2473762 28.6296777,23.1943845 C28.6646722,23.1493915 28.6996667,23.1053984 28.7326616,23.0584057 C28.7726553,23.0014146 28.8086497,22.9424238 28.8456439,22.8834331 C28.8756392,22.8374402 28.9076342,22.7914474 28.9356299,22.7434549 C28.9706244,22.6864638 29.0016196,22.6254734 29.0346144,22.5654827 C29.06261,22.5134909 29.0926053,22.4634987 29.1196011,22.410507 C29.1515961,22.3485167 29.1805916,22.282527 29.2095871,22.218537 C29.2345831,22.1655453 29.2605791,22.1135534 29.2845753,22.0595618 C29.3145706,21.9895728 29.3415664,21.9165842 29.3695621,21.8445954 C29.3895589,21.7926035 29.4105556,21.7436112 29.4295527,21.6916193 C29.4565485,21.6146314 29.4805447,21.5356437 29.5065406,21.4576559 C29.5225381,21.4066639 29.5405353,21.3576715 29.555533,21.3056796 C29.5795292,21.2236924 29.600526,21.1397056 29.6225225,21.0567185 C29.6355205,21.0057265 29.6505181,20.9557343 29.6625163,20.9047423 C29.683513,20.816756 29.7015102,20.7267701 29.7195074,20.637784 C29.7305056,20.5877918 29.7415039,20.5387995 29.7515024,20.4878075 C29.7684997,20.3958218 29.7824975,20.3028364 29.7964953,20.2088511 C29.8044941,20.157859 29.8134927,20.1078668 29.8204916,20.0568748 C29.8334895,19.9588901 29.8444878,19.8579059 29.8544863,19.7579215 C29.8594855,19.709929 29.8664844,19.6619365 29.8704838,19.613944 C29.8794824,19.5109601 29.8854814,19.4069764 29.8924803,19.3029926 C29.8954799,19.2540003 29.8994792,19.2060078 29.9014789,19.1560156 C29.9064781,19.0500322 29.9084778,18.942049 29.9104775,18.8350658 C29.9114774,18.7860734 29.913477,18.7370811 29.913477,18.6880887 C29.9144769,18.5771061 29.9114774,18.4641237 29.9094777,18.3521412" fill="#49BD9E"/></g><rect fill="#3BC4A1" filter="url(#O)" transform="rotate(26 86.634 217.503)" x="65.634" y="215.003" width="42" height="5" rx="2.5"/></g><g transform="translate(591 151)"><path d="M15.4885405,37.8846261 C24.0426252,42.8233292 30.977081,38.8197193 30.977081,28.942313 C30.977081,19.0649068 24.0426252,7.05407704 15.4885405,2.11537392 C6.93445579,-2.82332919 0,1.18028072 0,11.057687 C0,20.9350932 6.93445579,32.945923 15.4885405,37.8846261 Z" fill="url(#P)" opacity=".3"/><polygon fill="url(#Q)" points="20.6513874 22.980771 12.9071171 24.4711565 12.9071171 12.5480725"/></g><g transform="translate(495 93)"><path d="M10.6796743,2.75964402 C10.6796743,5.11413012 12.3916815,8.011246 14.5035493,9.23053344 C16.6154171,10.4498209 18.3274242,9.52956055 18.3274242,7.17507445 L23.1072678,9.93471847 L23.1067202,10.0701768 L23.2245085,10.0024074 L28.6322843,19.3689498 C29.3396445,20.5941337 29.376874,21.9131952 28.7439727,22.415187 L28.6322843,22.4911306 L26.6043684,23.6619484 C25.8970081,24.070343 24.773282,23.4645484 24.0220938,22.3000382 L23.9004805,22.100858 L23.1067202,20.7257143 L23.1072678,38.6350163 C23.1072678,39.8543037 22.2512643,40.3485176 21.1953304,39.7388739 L7.81176815,32.0118706 C6.75583424,31.4022269 5.89983069,29.9195852 5.89983069,28.7002978 L5.89928303,11.0051442 L5.29179732,11.3571298 C4.5451393,11.788213 3.33456745,11.089289 2.58790943,9.79603937 L0.559993517,6.28358597 C-0.186664506,4.99033634 -0.186664506,3.59248838 0.559993517,3.16140517 L5.89928303,0.0780577038 L5.89983069,0 L10.6796743,2.75964402 Z" fill="url(#R)" opacity=".5"/><path d="M0.448305059,3.2373488 L0.559993517,3.16140517 L5.29179732,11.3571298 C4.5451393,11.788213 3.33456745,11.089289 2.58790943,9.79603937 L0.559993517,6.28358597 C-0.111998703,5.1196613 -0.179197925,3.87101199 0.358395851,3.31866171 L0.448305059,3.2373488 Z" fill="url(#S)"/><path d="M28.7439727,19.5738601 L28.6322843,19.3689498 L23.9004805,22.100858 C24.6471385,23.3941076 25.8577103,24.0930316 26.6043684,23.6619484 L28.6322843,22.4911306 C29.3042765,22.1031557 29.3714757,20.9321014 28.8338819,19.7589913 L28.7439727,19.5738601 Z" fill="url(#T)"/><path d="M8.76773688,1.65578641 L10.6796743,2.75964402 C10.6796743,5.11413012 12.3916815,8.011246 14.5035493,9.23053344 C16.6154171,10.4498209 18.3274242,9.52956055 18.3274242,7.17507445 L18.3268307,7.174 L20.2387369,8.27778641 C20.2393616,11.8636371 17.7730442,13.3592603 14.6928819,11.696276 L14.5035493,11.5905049 C11.3357476,9.76157371 8.76773688,5.31364875 8.76773688,1.65578641 L8.76773688,1.65578641 Z" fill="url(#U)"/></g><g transform="translate(536 105)"><mask id="Y" fill="#fff"><use xlink:href="#V"/></mask><use fill="url(#W)" opacity=".5" xlink:href="#V"/><polygon fill="url(#X)" mask="url(#Y)" points="-0.0592886503 -0.753319455 12.9928547 6.782339 12.9928547 8.66625361 -0.0592886503 1.13059516"/><polygon fill="url(#X)" mask="url(#Y)" points="-0.0592886503 23.7375705 12.9928547 31.273229 12.9928547 33.1571436 -0.0592886503 25.6214851"/></g><g transform="translate(517 68)"><mask id="ac" fill="#fff"><use xlink:href="#Z"/></mask><use fill="url(#aa)" opacity=".5" xlink:href="#Z"/><polygon fill="url(#ab)" mask="url(#ac)" points="10.0164114 3.53932497 11.1565684 5.16371569 7.98327713 8.32484918 6.84312011 6.70045846"/><polygon fill="url(#ad)" mask="url(#ac)" points="12.8567765 7.65355258 13.9675909 9.30555226 10.6246008 12.2744556 9.51378648 10.6224559"/><polygon fill="url(#ad)" mask="url(#ac)" points="15.7727863 11.1480158 16.8836007 12.8000154 13.5406107 15.7689187 12.4297963 14.1169191"/><polygon fill="url(#ae)" mask="url(#ac)" points="-4.79616347e-14 10.4397289 22.627417 23.5036742 22.627417 25.953164 -4.72955008e-14 12.8892187"/></g><g transform="translate(632 160)"><path d="M0.695705779,15.0516734 L18.784056,25.4949873 C19.1682837,25.7168212 19.4797618,26.2563171 19.4797618,26.699985 L19.4797618,27.5033169 C19.4797618,27.9469848 19.1682837,28.1268168 18.784056,27.9049828 L0.695705779,17.4616689 C0.311478087,17.2398349 0,16.7003391 0,16.2566712 L0,15.4533393 C0,15.0096714 0.311478087,14.8298394 0.695705779,15.0516734 Z" fill="url(#af)"/><path d="M0.695705779,19.8716644 L7.65276356,23.8883236 C8.03699126,24.1101576 8.34846934,24.6496534 8.34846934,25.0933214 L8.34846934,25.8966532 C8.34846934,26.3403211 8.03699126,26.5201531 7.65276356,26.2983191 L0.695705779,22.2816599 C0.311478087,22.059826 0,21.5203301 0,21.0766622 L0,20.2733303 C0,19.8296624 0.311478087,19.6498305 0.695705779,19.8716644 Z" fill="url(#ag)" opacity=".4"/><path d="M1.39141156,0.190034414 L18.0883502,9.83001646 C18.8568056,10.2736844 19.4797618,11.3526761 19.4797618,12.240012 L19.4797618,21.879994 C19.4797618,22.7673299 18.8568056,23.1269938 18.0883502,22.6833259 L1.39141156,13.0433438 C0.622956173,12.5996759 0,11.5206841 0,10.6333483 L0,0.993366251 C0,0.106030406 0.622956173,-0.253633508 1.39141156,0.190034414 Z" fill="url(#ah)" opacity=".4"/></g><g transform="translate(617 115)"><path d="M3.37507799e-14,11.9324279 L1.76499981,12.951451 C1.76499981,17.4402055 4.90684008,22.8955644 8.78975579,25.1592812 L8.861,25.2004279 L9.02924696,25.2943049 C12.7608506,27.3263359 15.767532,25.5962746 15.8816388,21.3556158 L15.8849983,21.1036359 L17.6499981,22.122659 C17.6499981,27.4066754 14.1670204,29.7404528 9.70743111,27.6769402 L9.707,31.8024279 L13.2374986,33.8414248 C13.7248898,34.1228203 14.1199985,34.8071686 14.1199985,35.3699595 C14.1199985,35.9327504 13.7248898,36.1608665 13.2374986,35.8794711 L4.41249952,30.7843555 C3.92510828,30.50296 3.52999962,29.8186117 3.52999962,29.2558208 C3.52999962,28.6930299 3.92510828,28.4649138 4.41249952,28.7463093 L7.942,30.7834279 L7.94216811,26.6577194 C3.56327448,23.6273512 0.126065582,17.4446847 0.00339038595,12.2196148 L3.37507799e-14,11.9324279 Z" fill="url(#ai)"/><path d="M8.82499904,0.723173607 C11.7493465,2.41154639 14.1199985,6.51763608 14.1199985,9.89438164 L14.1199985,20.0846128 C14.1199985,23.4613583 11.7493465,24.8300549 8.82499904,23.1416821 C5.90065161,21.4533094 3.52999962,17.3472197 3.52999962,13.9704741 L3.52999962,3.78024295 C3.52999962,0.403497395 5.90065161,-0.965199171 8.82499904,0.723173607 Z" fill="url(#aj)" opacity=".3"/><path d="M10.5899989,16.0085203 L14.1199985,18.0465666 L14.1199985,20.0846128 L10.5899989,18.0465666 C10.1026076,17.7651711 9.70749895,17.0808228 9.70749895,16.5180319 C9.70749895,15.955241 10.1026076,15.7271249 10.5899989,16.0085203 Z M3.52999962,11.9324279 L7.05999924,13.9704741 C7.54739047,14.2518696 7.94249914,14.9362178 7.94249914,15.4990088 C7.94249914,16.0617997 7.54739047,16.2899158 7.05999924,16.0085203 L3.52999962,13.9704741 L3.52999962,11.9324279 Z M10.5899989,11.9324279 L14.1199985,13.9704741 L14.1199985,16.0085203 L10.5899989,13.9704741 C10.1026076,13.6890786 9.70749895,13.0047304 9.70749895,12.4419394 C9.70749895,11.8791485 10.1026076,11.6510324 10.5899989,11.9324279 Z M3.52999962,7.85633541 L7.05999924,9.89438164 C7.54739047,10.1757771 7.94249914,10.8601254 7.94249914,11.4229163 C7.94249914,11.9857072 7.54739047,12.2138233 7.05999924,11.9324279 L3.52999962,9.89438164 L3.52999962,7.85633541 Z M10.5899989,7.85633541 L14.1199985,9.89438164 L14.1199985,11.9324279 L10.5899989,9.89438164 C10.1026076,9.61298618 9.70749895,8.92863789 9.70749895,8.36584697 C9.70749895,7.80305604 10.1026076,7.57493995 10.5899989,7.85633541 Z M3.52999962,3.78024295 L7.05999924,5.81828918 C7.54739047,6.09968464 7.94249914,6.78403293 7.94249914,7.34682385 C7.94249914,7.90961478 7.54739047,8.13773087 7.05999924,7.85633541 L3.52999962,5.81828918 L3.52999962,3.78024295 Z" fill="url(#ak)"/></g><g transform="translate(395 36)" fill-rule="nonzero"><path d="M18.2873443,26.7471102 C18.6097383,26.5609759 19.1170338,26.8252271 19.4678742,27.3427813 L19.5521272,27.477333 L25.9045152,38.4799917 C26.2537754,39.0849281 26.2537754,39.7387919 25.9045152,39.9404373 C25.5821212,40.1265716 25.0748257,39.8623204 24.7239853,39.3447662 L24.6397323,39.2102145 L18.2873443,28.2075558 C17.9380841,27.6026194 17.9380841,26.9487556 18.2873443,26.7471102 Z" fill="url(#al)" opacity=".5"/><path d="M11.1792078,1.52681944 C5.00510184,-2.03780232 -1.29674049e-13,0.851894568 -1.29674049e-13,7.9811381 C-1.29674049e-13,15.1103816 5.00510184,23.7794723 11.1792078,27.3440941 C17.3533138,30.9087158 22.3584157,28.0190189 22.3584157,20.8897754 C22.3584157,13.7605319 17.3533138,5.0914412 11.1792078,1.52681944 Z M11.1792078,3.59220141 C16.3654569,6.58648369 20.5697424,13.8685199 20.5697424,19.8570844 C20.5697424,25.845649 16.3654569,28.2729944 11.1792078,25.2787121 C5.9929588,22.2844298 1.78867325,15.0023936 1.78867325,9.01382908 C1.78867325,3.02526452 5.9929588,0.597919128 11.1792078,3.59220141 Z" fill="url(#am)"/></g><g transform="translate(411)"><path d="M2.48028517,0.338749191 L23.9760899,12.7493579 C25.3459136,13.5402259 26.4563751,15.4636017 26.4563751,17.0453378 L26.4563751,34.2292575 C26.4563751,35.8109936 25.3459136,36.4521189 23.9760899,35.6612508 L2.48028517,23.2506421 C1.11046149,22.4597741 0,20.5363983 0,18.9546622 L0,1.7707425 C0,0.189006367 1.11046149,-0.452118875 2.48028517,0.338749191 Z" fill="url(#an)" opacity=".3"/><polygon fill="url(#ao)" points="17.3619962 20.3866555 10.7479024 21.3413177 10.7479024 11.7946957"/></g><g transform="translate(429 44)"><path d="M10.8419784,26.5192383 C16.8298377,29.9763304 21.6839567,27.1738035 21.6839567,20.2596191 C21.6839567,13.3454348 16.8298377,4.93785393 10.8419784,1.48076175 C4.85411906,-1.97633044 0,0.826196507 0,7.74038087 C0,14.6545652 4.85411906,23.0621461 10.8419784,26.5192383 Z" fill="url(#ap)" opacity=".3"/><path d="M6.09861283,10.4789642 L11.5186128,13.6079642 L11.519602,11.2614166 L15.5853439,16.7385834 L11.519602,17.5210358 L11.5186128,15.1729642 L6.09861283,12.043869 L6.09861283,10.4789642 Z" fill="url(#aq)"/></g><g transform="translate(5 299)"><g transform="translate(0 16.697)"><g transform="translate(0 24.17)"><path d="M8.83621566 46.8362309C9.13823736 47.0341547 9.4791383 47.1331166 9.85891848 47.1331166 10.8607437 47.1331166 15.1806296 44.1489976 15.5519184 43.3272899 15.9232072 42.5055822 16.2244524 42.0474005 15.6842073 41.681585 15.1439622 41.3157694 11.9132235 42.5055822 10.4605502 43.3272899 9.65139202 43.7849919 8.99355326 44.5287007 8.48703392 45.5584164L8.48700968 45.5584045C8.26416597 46.0114289 8.41394464 46.5595042 8.83621566 46.8362309ZM3.56125998 43.9057C3.86328169 44.1036238 4.20418263 44.2025856 4.58396281 44.2025856 5.58578799 44.2025856 9.9056739 41.2184666 10.2769627 40.3967589 10.6482516 39.5750512 10.9494967 39.1168696 10.4092516 38.751054 9.86900649 38.3852385 6.63826785 39.5750512 5.18559451 40.3967589 4.37643635 40.8544609 3.71859759 41.5981698 3.21207824 42.6278855L3.21205401 42.6278735C2.9892103 43.080898 3.13898897 43.6289732 3.56125998 43.9057Z" fill="url(#ar)"/><path d="M2.97450261,43.2028367 C3.93138385,43.4987765 4.66301353,43.3699167 5.16939164,42.8162573 C5.67576974,42.2625978 5.89155298,41.3555832 5.81674134,40.0952135 L8.52448918,4.78096883 L0,0 C0.428513833,0.204908217 0.839665796,5.00050458 1.23345589,14.3867891 C1.45482101,19.6631941 0.894185129,24.989404 1.23345589,30.4042584 C1.40963165,33.2160718 1.98998055,37.4822646 2.97450261,43.2028367 Z" fill="url(#as)" fill-rule="nonzero"/><path d="M8.24945828,46.1333676 C9.20633953,46.4293074 9.9379692,46.3004476 10.4443473,45.7467882 C10.9507254,45.1931287 11.1665087,44.2861142 11.091697,43.0257444 L11.8971518,32.5210632 L15.0922343,4.53316503 L5.27495567,2.93053093 C5.70346951,3.13543915 6.11462147,7.93103551 6.50841156,17.31732 C6.72977668,22.593725 6.1691408,27.9199349 6.50841156,33.3347893 C6.68458732,36.1466027 7.26493623,40.4127955 8.24945828,46.1333676 Z" fill="url(#at)" fill-rule="nonzero"/></g><path d="M13.3339157,33.3638696 C10.8467182,34.2129795 3.1043991,31.2209189 1.67503882,30.0312492 C0.245678543,28.8415796 0,28.1321278 0,23.2838735 C0,18.4356191 1.03792125,14.3843891 1.03792125,10.7072024 C1.03792125,7.03001564 2.11540547,2.05727097 4.13093249,0.905663891 C5.86345617,-0.084244209 7.66788341,-0.501629974 10.1305077,0.905663891 C12.6485035,2.34460037 14.6330691,2.80597228 15.4267972,5.87526053 C16.8256279,11.2844368 15.0707072,15.6747957 15.0707072,20.5837212 C15.0707072,25.4926467 15.8211132,32.5147597 13.3339157,33.3638696 Z" fill="url(#au)"/><ellipse fill="#FFF" cx="9.671" cy="1.312" rx="2.051" ry="1.172"/></g><g transform="translate(2.12)"><path d="M8.47860231,18.4321768 C8.83956799,18.3336074 9.47759142,15.9922773 9.80973531,15.8147585 C11.9193138,14.6872657 12.7450211,14.6872657 12.7743398,12.2548436 C12.775248,12.1794913 12.7756985,12.1019155 12.7756985,12.0220369 C12.7756985,11.5798789 12.6711778,10.7282196 12.7756985,10.2835369 C12.8637443,9.90894672 13.1699171,9.94301877 13.1136815,9.55476109 C13.0729469,9.273524 12.5039466,8.93739801 12.4494083,8.66043771 C11.8884132,5.81155297 10.593037,3.29508866 8.47860231,3.29508866 C5.53794448,3.29508866 3.1540703,6.42392352 3.1540703,10.2835369 C3.1540703,12.8023239 6.31376439,16.8280575 6.20710995,17.6273954 C6.10045551,18.4267333 7.48025256,18.7047974 8.47860231,18.4321768 Z" fill="url(#av)"/><path d="M8.13729827,0 C9.76311807,0 10.5896486,4.02944426 10.2706958,4.02944426 C9.95174301,4.02944426 9.69567929,5.41232431 9.05491183,6.48322731 C8.64115944,7.17472417 11.1658099,9.62081285 10.7622895,9.83344805 C10.5095444,9.96663217 9.9963507,9.10367716 9.32879055,9.10367716 C7.44455074,9.10367716 8.51970898,11.5857567 10.0492604,11.5857567 C10.165789,11.5857567 10.0445649,13.4877026 9.05491183,14.1544072 C7.99320251,14.8696542 6.91153181,15.0782112 6.10298386,15.0782112 C5.2944359,15.0782112 3.76688809,15.4611263 2.14135922,12.6742601 C0.515830344,9.88739386 -0.416113946,8.99642122 0.182328782,5.86249278 C1.45098538,2.8099041 6.51147847,0 8.13729827,0 Z" fill="url(#aw)"/></g><path d="M26.688458,45.1762556 C27.6169191,44.2796511 28.1139437,44.5572815 28.71168,45.1762556 C29.3094164,45.7952297 29.6412907,46.1663139 27.947414,48.002107 C26.2535374,49.8379 25.9471612,49.0421218 25.3494249,48.4231477 C25.1531248,48.219873 25.1300372,47.8966321 25.2204501,47.5223869 C25.1522931,47.5381187 25.0821775,47.5401386 25.0123496,47.5278261 C24.5873098,47.4528801 24.7354573,47.0109819 24.8478763,46.3734223 C24.9602953,45.7358626 24.9944149,45.1440724 25.4194547,45.2190184 C25.7222891,45.2724163 25.9380081,45.5809789 25.9963592,45.9845914 C26.2139674,45.6828741 26.4537637,45.4028973 26.688458,45.1762556 Z" fill="url(#ax)" transform="rotate(90 26.963 46.87)"/><path d="M27.4024463,35.9283078 C27.9411283,36.75106 27.5634239,37.8704572 26.7190295,38.3579686 L16.3280926,44.8609442 C15.4836981,45.3484555 14.339966,44.9482775 13.7734954,43.9671216 C13.2070247,42.9859657 13.4323265,41.7953756 14.2767209,41.3078642 L25.0106642,35.5501229 C25.8550586,35.0626116 26.8637644,35.1055556 27.4024463,35.9283078 Z" fill="url(#ay)" transform="rotate(75 20.557 40.152)"/><path d="M16.1179201,21.5534254 C17.709393,22.8132103 18.1692911,24.0084704 18.1692911,25.9580545 C18.1692911,27.2577772 18.1692911,30.4640644 18.1692911,35.5769161 C18.1692911,36.5742026 17.2508614,37.3826631 16.1179201,37.3826631 C14.9849788,37.3826631 14.0665485,36.5742026 14.0665485,35.5769161 C13.6758106,32.567456 13.4804416,30.3103609 13.4804416,28.8056309 C13.4804416,27.0780312 13.6758106,24.4866317 14.0665485,21.0314324 C14.0665485,20.0341459 14.5264472,20.2936405 16.1179201,21.5534254 Z" fill="url(#az)"/></g><g transform="translate(204 414)"><g transform="translate(1.576 18.044)"><path d="M15.2537974,1.30870637 C16.1988722,0.396058245 16.7047904,0.678656504 17.3132225,1.30870637 C17.9216546,1.93875624 18.2594675,2.31648052 16.5352809,4.18512286 C15.0200867,5.8272631 14.5955885,5.40075951 14.1020232,4.84564819 L13.9985403,4.72959886 C13.9634639,4.69072831 13.9276786,4.65188243 13.8908039,4.61369759 C13.6910644,4.40686122 13.6675078,4.07800127 13.7594204,3.69723666 C13.6899402,3.71283795 13.6186727,3.71487022 13.5476971,3.70235532 C13.1150518,3.62606827 13.2658502,3.17626282 13.3802808,2.52729484 C13.4947113,1.87832686 13.5294415,1.27594732 13.9620868,1.35223436 C14.2706084,1.40663504 14.4903012,1.72121853 14.5494691,2.13257925 C14.7702689,1.82502933 15.0146356,1.53966222 15.2537974,1.30870637 Z" fill="url(#aA)" transform="rotate(24 15.533 3.034)"/><path d="M14.1907802,3.23056082 C14.7391012,4.06803517 14.3546383,5.20746261 13.4951344,5.70369738 L2.91826442,12.3230357 C2.05876057,12.8192705 0.894562756,12.4119318 0.317955817,11.4132193 C-0.258651121,10.4145068 -0.0293178643,9.20261258 0.830185983,8.7063778 L11.7562,2.84560876 C12.6157038,2.34937399 13.6424592,2.39308647 14.1907802,3.23056082 Z" fill="url(#aB)"/></g><g transform="translate(0 15.42)"><g transform="translate(.403 24.603)"><path d="M8.96692904 47.656014C9.28109263 47.8696754 9.63722687 47.976506 10.0353318 47.976506 11.0550834 47.976506 15.4522684 44.9389899 15.830201 44.1025787 16.2081335 43.2661675 16.5147691 42.7997873 15.964857 42.4274259 15.4149448 42.0550646 12.1263961 43.2661675 10.6477289 44.1025787 9.81985611 44.5708667 9.14759869 45.3332813 8.63095667 46.3898226L8.6309397 46.3898143C8.41241497 46.8367009 8.5555893 47.3762636 8.96692904 47.656014ZM3.59758449 44.6730448C3.91174807 44.8867062 4.26788232 44.9935368 4.66598722 44.9935368 5.68573883 44.9935368 10.0829238 41.9560207 10.4608564 41.1196095 10.838789 40.2831983 11.1454245 39.8168181 10.5955124 39.4444567 10.0456003 39.0720954 6.75705154 40.2831983 5.27838438 41.1196095 4.45051155 41.5878975 3.77825413 42.3503121 3.26161212 43.4068534L3.26159515 43.4068451C3.04307042 43.8537317 3.18624475 44.3932944 3.59758449 44.6730448Z" fill="url(#aC)"/><path d="M3.02772769,43.9758986 C4.00173116,44.2771339 4.74645245,44.1459683 5.26189158,43.5824018 C5.7773307,43.0188353 5.99697511,42.0955908 5.92082481,40.8126683 L8.67702448,4.86651841 L0,0 C0.436181563,0.208574799 0.854690588,5.0899825 1.25552707,14.6442231 C1.48085325,20.0150429 0.910185478,25.4365588 1.25552707,30.9483054 C1.43485528,33.8104328 2.02558882,38.1529638 3.02772769,43.9758986 Z" fill="url(#aD)" fill-rule="nonzero"/><path d="M8.39707225,46.9588678 C9.37107571,47.2601031 10.115797,47.1289375 10.6312361,46.565371 C11.1466753,46.0018045 11.3663197,45.07856 11.2901694,43.7956375 L12.1100368,33.1029878 L15.3622914,4.61428047 L5.36934455,2.9829692 C5.80552612,3.191544 6.22403514,8.07295169 6.62487163,17.6271923 C6.85019781,22.9980121 6.27953003,28.419528 6.62487163,33.9312746 C6.80419983,36.793402 7.39493337,41.135933 8.39707225,46.9588678 Z" fill="url(#aE)" fill-rule="nonzero"/></g><path d="M14.1349805,36.8855833 C10.3314035,39.3417264 3.56263809,34.1659544 2.10770115,32.954997 C0.652764223,31.7440397 -0.697892725,30.688057 0.402689563,26.0868853 C1.50327185,21.4857135 1.45918315,14.6417801 1.45918315,10.8987946 C1.45918315,7.15580917 2.55594762,2.09408331 4.60754004,0.921869639 C6.3710651,-0.085751656 8.20778036,-0.510606028 10.7144703,0.921869639 C13.2775225,2.38655412 15.2975996,2.85618172 16.1055304,5.98039113 C17.5293915,11.486358 15.7430687,15.955277 15.7430687,20.9520417 C15.7430687,25.9488064 17.9385575,34.4294403 14.1349805,36.8855833 Z" fill="url(#aF)"/><ellipse fill="#FFF" cx="10.246" cy="1.336" rx="2.088" ry="1.193"/></g><path d="M11.1918421,17.1873457 C11.5592668,17.0870125 12.2087069,14.7037872 12.5467941,14.5230919 C14.694121,13.375424 15.5346032,13.375424 15.5644466,10.8994767 C15.5653711,10.822776 15.5658296,10.7438122 15.5658296,10.6625042 C15.5658296,10.2124343 15.4594386,9.34553561 15.5658296,8.89289588 C15.6554508,8.51160286 15.9671022,8.54628458 15.9098604,8.15107951 C15.8683969,7.86481003 15.289215,7.52266947 15.2337008,7.2407533 C14.6626674,4.34089125 13.344112,1.77939789 11.1918421,1.77939789 C8.19856481,1.77939789 5.77203412,4.96421943 5.77203412,8.89289588 C5.77203412,11.4567535 8.98826707,15.5545227 8.87970417,16.3681637 C8.77114128,17.1818048 10.1756281,17.4648446 11.1918421,17.1873457 Z" fill="url(#aG)"/><path d="M9.72883306,0 C12.9740847,0 13.340663,2.52689389 13.0160029,2.52689389 C12.6913429,2.52689389 12.7464724,4.0286106 12.0942392,5.1186761 C11.442006,6.2087416 13.398997,7.8150006 12.3345663,7.8150006 C11.2701357,7.8150006 11.2336843,10.2184173 12.7906052,10.2184173 C12.909219,10.2184173 12.7858257,12.1543962 11.778464,12.8330306 C10.6977567,13.5610761 9.5967308,13.773365 8.77371487,13.773365 C7.95069894,13.773365 6.21984363,13.773365 5.77203412,10.6654258 C5.3242246,7.55748646 2.89011681,8.01548328 3.49926794,4.82547702 C4.10841906,1.63547077 6.48358141,0 9.72883306,0 Z" fill="url(#aH)"/><circle fill="url(#aI)" cx="3.982" cy="4.228" r="3.58"/><g transform="translate(14.124 19.212)"><path d="M15.830733,6.10739692 C16.7758078,5.19474879 17.2817261,5.47734705 17.8901581,6.10739692 C18.4985902,6.73744678 18.8364031,7.11517107 17.1122165,8.98381341 C15.5970223,10.6259537 15.1725241,10.1994501 14.6789588,9.64433874 L14.5754759,9.52828941 C14.5403995,9.48941886 14.5046142,9.45057298 14.4677395,9.41238814 C14.268,9.20555177 14.2444434,8.87669182 14.336356,8.49592721 C14.2668758,8.5115285 14.1956083,8.51356077 14.1246327,8.50104586 C13.6919874,8.42475882 13.8427858,7.97495337 13.9572164,7.32598539 C14.0716469,6.67701741 14.1063771,6.07463787 14.5390224,6.15092491 C14.847544,6.20532559 15.0672369,6.51990908 15.1264047,6.9312698 C15.3472045,6.62371988 15.5915712,6.33835277 15.830733,6.10739692 Z" fill="url(#aA)" transform="rotate(24 16.11 7.832)"/><path d="M14.7677158,8.02925137 C15.3160368,8.86672572 14.9315739,10.0061532 14.07207,10.5023879 L3.49520002,17.1217263 C2.63569618,17.6179611 1.47149836,17.2106224 0.89489142,16.2119099 C0.318284482,15.2131974 0.547617739,14.0013031 1.40712159,13.5050683 L12.3331356,7.64429931 C13.1926395,7.14806453 14.2193948,7.19177702 14.7677158,8.02925137 Z" fill="url(#aB)"/><path d="M2.68467294,1.15286789 C4.3046233,2.43519508 4.77275071,3.34996282 4.77275071,4.36509458 L4.77275071,15.4272918 C4.77275071,16.4424236 3.83788682,17.2653505 2.68467294,17.2653505 C1.53145906,17.2653505 0.596594501,16.4424236 0.596594501,15.4272918 C0.198864834,12.3516815 0,10.0449738 0,8.5071687 C0,6.75480555 0.198864834,4.12626082 0.596594501,0.621534514 C0.596594501,-0.393597248 1.06472258,-0.129459299 2.68467294,1.15286789 Z" fill="url(#aJ)"/></g></g><g transform="translate(97 357)"><g transform="translate(0 1.689)"><g transform="translate(0 19.204)"><g transform="translate(0 18.775)"><path d="M9.02259918 48.0022507C9.341745 48.2224666 9.70414903 48.3325746 10.1098113 48.3325746 11.1371312 48.3325746 15.5669509 45.2725148 15.9476884 44.4298961 16.3284259 43.5872773 16.6373372 43.1174357 16.0833438 42.7423108 15.5293504 42.3671858 12.2163949 43.5872773 10.7267535 44.4298961 9.89101498 44.9026333 9.21269464 45.6729045 8.69179247 46.7407098L8.69176088 46.7406944C8.47493473 47.1851696 8.61555467 47.7213831 9.02259918 48.0022507ZM3.61340481 44.9971427C3.93255063 45.2173587 4.29495466 45.3274666 4.70061691 45.3274666 5.72793684 45.3274666 10.1577565 42.2674069 10.538494 41.4247881 10.9192315 40.5821693 11.2281428 40.1123277 10.6741494 39.7372028 10.120156 39.3620779 6.80720054 40.5821693 5.31755912 41.4247881 4.48182061 41.8975253 3.80350028 42.6677966 3.2825981 43.7356018L3.28256651 43.7355864C3.06574036 44.1800616 3.2063603 44.7162752 3.61340481 44.9971427Z" fill="url(#aK)"/><path d="M3.05019866,44.3022757 C4.03143092,44.6057468 4.78167933,44.4736077 5.30094391,43.9058585 C5.82020848,43.3381094 6.04148303,42.4080128 5.96476756,41.1155688 L8.741423,4.90263639 L0.601021597,6.01021597 C0.639759317,2.21352811 0.861033869,5.12775896 1.26484525,14.7529085 C1.49184374,20.1635891 0.916940628,25.625342 1.26484525,31.1779953 C1.44550439,34.0613646 2.04062219,38.4361248 3.05019866,44.3022757 Z" fill="url(#aL)" fill-rule="nonzero"/><path d="M8.45939303,47.3073837 C9.44062529,47.6108547 10.1908737,47.4787157 10.7101383,46.9109665 C11.2294028,46.3432174 11.4506774,45.4131208 11.3739619,44.1206768 L12.1999142,33.3486692 L15.4763061,4.64852641 L5.40919437,3.00510798 C5.84861315,3.21523077 6.27022824,8.13286695 6.67403962,17.7580165 C6.90103811,23.1686971 6.326135,28.63045 6.67403962,34.1831033 C6.85469875,37.0664726 7.44981656,41.4412327 8.45939303,47.3073837 Z" fill="url(#aM)" fill-rule="nonzero"/></g><path d="M13.6732413,34.2129236 C11.1227488,35.0836419 3.1834008,32.0154384 1.71766572,30.7954937 C0.251930646,29.575549 0,28.8480429 0,23.8764086 C0,18.9047744 1.06433459,14.7504474 1.06433459,10.9796825 C1.06433459,7.20891764 2.16923896,2.10962503 4.23605773,0.928711505 C6.0126712,-0.0863880815 7.86301807,-0.514395607 10.388312,0.928711505 C12.9703865,2.40426648 15.005456,2.87737953 15.8193831,6.02477597 C17.2538117,11.5716066 15.4542312,16.0736927 15.4542312,21.1075421 C15.4542312,26.1413914 16.2237338,33.3422053 13.6732413,34.2129236 Z" fill="url(#aN)"/><ellipse fill="#FFF" cx="9.917" cy="1.345" rx="2.104" ry="1.202"/></g><g transform="translate(.512)"><path d="M10.3568013,20.9832931 C10.7269529,20.8822153 11.381213,18.4813023 11.7218094,18.299266 C13.8850731,17.1430804 14.7317932,17.1430804 14.761858,14.6487573 C14.7627894,14.5714873 14.7632513,14.4919374 14.7632513,14.410026 C14.7632513,13.9566158 14.6560707,13.0832832 14.7632513,12.6272841 C14.8535377,12.2431613 15.167502,12.2781004 15.1098354,11.8799622 C15.0680642,11.5915681 14.4845837,11.2468883 14.4286575,10.9628798 C13.8533861,8.04149576 12.5250447,5.4609917 10.3568013,5.4609917 C7.34130868,5.4609917 4.89676894,8.66945011 4.89676894,12.6272841 C4.89676894,15.21017 8.1368719,19.3383517 8.02750328,20.1580314 C7.91813466,20.9777111 9.33304521,21.2628515 10.3568013,20.9832931 Z" fill="url(#aO)"/><path d="M11.3434193,0.296004941 C13.3598763,-0.489752955 13.924712,0.296004941 13.924712,2.56803092 C13.924712,4.36107975 13.209825,5.92163165 12.1945005,6.2140354 C11.1791761,6.50643916 11.6048508,7.63210742 10.9477769,8.73026309 C10.5234952,9.43935737 13.1123937,11.9476949 12.6986045,12.1657413 C12.4394274,12.3023147 11.9131738,11.417399 11.2286254,11.417399 C9.29643485,11.417399 10.398954,13.9626432 11.96743,13.9626432 C12.086924,13.9626432 11.962615,15.9129904 10.9477769,16.5966615 C9.85904887,17.3301103 8.74985148,17.5439748 7.92072735,17.5439748 C7.09160322,17.5439748 5.52518191,17.9366344 3.85828607,15.0788472 C2.19139024,12.2210599 -0.525075916,11.9439447 0.0885961666,8.73026309 C1.72526484,2.8080874 4.89676894,2.8080874 11.3434193,0.296004941 Z" fill="url(#aP)"/></g></g><g transform="rotate(22 11.121 57.213)"><path d="M6.39411597,0.00051877499 C8.23074524,0.216270761 8.59225069,1.81245836 8.59225069,3.81165605 C8.59225069,5.1444545 8.48530052,8.1608793 8.27140018,12.8609304 C8.27140018,13.8835962 7.32959731,14.7126307 6.1678246,14.7126307 C5.00605188,14.7126307 4.06424901,13.8835962 4.06424901,12.8609304 C3.94179843,12.2545117 3.88057315,11.2175178 3.88057315,9.74994874 C3.88057315,6.97942186 4.05992477,6.66877573 4.15239052,3.88330115 C4.24485627,1.09782657 4.5574867,-0.215233211 6.39411597,0.00051877499 Z" transform="rotate(-144 8.804 15.248)" fill="url(#aQ)"/><path d="M9.1090492,1.52652997 C10.0611381,0.607108418 10.5708111,0.891804044 11.1837588,1.52652997 C11.7967065,2.16125589 12.1370265,2.54178354 10.4000435,4.42429444 C8.66306055,6.30680534 8.34888764,5.49077586 7.73593994,4.85604994 C7.5345801,4.64753572 7.51095415,4.31592379 7.6037718,3.93199876 C7.53383999,3.94849705 7.46191575,3.95057407 7.39028665,3.93794393 C6.95443036,3.8610907 7.10634796,3.40794692 7.2216278,2.75416247 C7.33690764,2.10037803 7.37189558,1.49352779 7.80775187,1.57038101 C8.1186126,1.62519415 8.33995689,1.94220441 8.39952195,2.35671497 C8.62157795,2.04709853 8.86793912,1.75936726 9.1090492,1.52652997 Z" fill="url(#aR)" transform="rotate(-45 9.39 3.264)"/><path d="M16.5994339,8.27082068 C17.1518245,9.11451053 16.7645082,10.2623945 15.8986253,10.7623122 L5.24325663,17.4307775 C4.37737378,17.9306952 3.2045356,17.5203333 2.62364925,16.5142086 C2.04276289,15.508084 2.27379819,14.2871954 3.13968104,13.7872777 L14.146785,7.88301161 C15.0126678,7.38309391 16.0470434,7.42713082 16.5994339,8.27082068 Z" fill="url(#aS)" transform="rotate(-60 9.58 12.602)"/></g></g></g></svg>